<svg width="17" height="14" viewBox="0 0 17 14" fill="none" xmlns="http://www.w3.org/2000/svg">
<path d="M14.5 2.33333H12.2083L10.1029 0.22789C10.0308 0.155523 9.94508 0.0981327 9.85071 0.059022C9.75633 0.0199112 9.65516 -0.000147349 9.553 8.14857e-07H6.44189C6.33973 -0.000147349 6.23856 0.0199112 6.14418 0.059022C6.04981 0.0981327 5.96411 0.155523 5.892 0.22789L3.78656 2.33333H1.55556C0.697666 2.33333 0 3.031 0 3.88889V12.4444C0 13.3023 0.697666 14 1.55556 14H14.5C15.3579 14 16.0556 13.3023 16.0556 12.4444V3.88889C16.0556 3.031 15.3579 2.33333 14.5 2.33333ZM7.99744 11.6667C5.88967 11.6667 4.10856 9.88556 4.10856 7.77778C4.10856 5.67 5.88967 3.88889 7.99744 3.88889C10.1052 3.88889 11.8863 5.67 11.8863 7.77778C11.8863 9.88556 10.1052 11.6667 7.99744 11.6667Z" fill="#252525"/>
<path d="M7.99961 5.44434C6.69881 5.44434 5.59961 6.513 5.59961 7.77767C5.59961 9.04234 6.69881 10.111 7.99961 10.111C9.30041 10.111 10.3996 9.04234 10.3996 7.77767C10.3996 6.513 9.30041 5.44434 7.99961 5.44434Z" fill="#252525"/>
</svg>
