<svg width="112" height="50" viewBox="0 0 112 50" fill="none" xmlns="http://www.w3.org/2000/svg">
<g clip-path="url(#clip0_1286_15822)">
<path d="M111.425 23.5371L105.358 23.1727C105.358 23.1727 99.3127 23.0503 95.9633 18.889C95.0285 17.7282 94.2738 15.7736 94.1382 13.9813C93.8003 9.51789 93.4969 5.04952 93.1787 0.583637C93.1787 0.266606 92.9272 0.0094876 92.6287 -0.0029939C92.313 -0.0154754 92.0368 0.249132 92.0343 0.583637C91.7112 5.07448 91.3906 9.56532 91.0675 14.0562C90.7049 17.3388 89.8762 18.869 87.9919 20.2944C86.2333 21.6249 83.794 21.6374 82.0305 20.3119C80.1339 18.8865 79.2361 16.9743 78.9302 14.0786L77.9634 0.583637C77.9363 0.286577 77.6921 0.004495 77.4035 -0.0029939C77.1051 -0.0104828 76.8461 0.276592 76.819 0.583637C76.5033 4.98461 76.1753 9.63272 75.8719 14.0337C75.2972 22.3564 68.2852 22.269 65.6289 22.269L33.0426 23.5246C32.7219 23.5296 32.4605 23.7892 32.4506 24.1038C32.4407 24.4308 32.7071 24.7154 33.0426 24.7204C44.4793 25.0673 54.1896 25.4168 65.6289 25.7638C67.0643 25.8612 69.1558 26.1158 70.2238 26.7374C74.9889 29.316 74.7571 34.9802 74.7028 36.6252C74.6485 38.2778 74.101 39.9728 73.6053 40.9089C73.3167 41.4506 72.557 42.9184 71.5803 43.8096C70.357 44.9254 68.2137 46.3458 65.0147 46.3383C64.7212 46.3383 64.4721 46.2509 64.1959 46.1536C64.8717 45.7592 66.7535 44.8206 68.8081 41.9773C71.5261 38.2129 71.4619 33.5997 69.0473 31.066C68.5516 30.5442 67.5428 29.8303 65.8607 29.718C63.2784 29.5432 56.2959 29.1139 54.0836 37.7735C53.5286 39.9478 53.5138 43.6323 55.958 45.8366C55.921 45.8565 55.889 45.884 55.8495 45.8965C53.2474 46.6304 50.596 45.4746 50.046 42.524C49.2346 38.1754 50.6651 33.2003 52.5297 30.5143C52.6925 30.2796 52.4163 29.9651 52.1351 29.9651L45.2267 30.2147C45.054 30.2147 44.8986 30.3221 44.837 30.4843C44.2869 31.9272 41.8501 38.9767 43.4311 43.9843C42.0795 45.2999 40.1853 46.1286 38.4465 45.7093C37.857 45.567 37.4081 45.1775 37.1417 44.8505C36.8285 44.4661 36.5893 44.0218 36.4314 43.55C35.0182 39.2988 37.7953 32.5288 38.407 30.4444C38.4785 30.2047 38.2985 29.9651 38.0518 29.9651L31.0546 30.2147C30.8918 30.2147 30.7463 30.3221 30.6995 30.4793C30.0261 32.7784 25.6063 49.3539 37.1442 49.3539C40.3234 49.3539 42.8268 48.2455 44.795 46.5655C46.1762 48.2455 48.6944 49.3539 52.2905 49.3539C55.2428 49.3539 57.1937 48.8421 59.1175 48.1082C61.7147 49.2016 63.9418 49.3738 65.3625 49.4038C69.511 49.4862 75.4501 48.1232 78.2175 44.0517C79.1522 42.6762 79.865 40.8365 79.9982 40.487C80.23 39.8779 80.5803 38.8744 81.2215 35.6766C81.3893 34.8404 81.6877 33.2802 81.6877 33.2802C82.3635 29.4459 83.6411 28.1128 85.449 28.1128C87.2569 28.1128 88.2977 29.2187 89.2497 33.2702C89.4544 34.1364 89.8984 36.6701 90.0612 37.6662C90.4459 40.0302 91.3018 46.7901 91.5065 48.268C91.5805 48.7997 92.0146 49.3638 92.6657 49.3638C93.3169 49.3638 93.7287 48.7847 93.7855 48.2056C94.0642 45.3847 94.814 38.7945 94.9669 37.4515C95.216 35.2622 95.5687 30.8937 97.5591 28.5023C99.7937 26.0209 103.368 25.5891 105.106 25.3694C107.459 25.0973 109.07 25.0748 111.423 24.8052C111.758 24.7703 112.007 24.4757 111.995 24.1462C111.985 23.8317 111.739 23.5671 111.423 23.5321L111.425 23.5371ZM60.1855 39.7356C60.553 38.1629 61.6037 35.5718 62.9997 33.8244C63.6163 33.0505 64.4055 32.0645 65.2022 32.2567C65.7349 32.384 65.9026 33.1878 65.7546 34.1564C65.5055 35.7915 63.1575 42.1845 60.7084 43.4401C60.2521 42.9983 59.7169 41.7526 60.1855 39.7381V39.7356Z" fill="#F3F3F3"/>
<path d="M10.2381 9.89492H0.448888C0.19978 9.89492 0 10.0996 0 10.3492V48.9196C0 49.1717 0.202246 49.3739 0.448888 49.3739H9.85827C9.85827 49.3739 27.8754 49.7908 27.8754 29.0465C27.8754 8.30228 10.2381 9.89492 10.2381 9.89492ZM9.5919 46.6929C9.44884 46.7079 9.32306 46.593 9.32306 46.4482V12.7906C9.32306 12.6433 9.44144 12.5235 9.58696 12.5235C10.1345 12.5235 10.6771 12.5909 11.2074 12.7257C13.4543 13.2899 19.4477 14.4157 19.4477 30.1C19.4477 43.5925 14.0512 45.4597 11.5108 46.3484C10.9928 46.5306 10.0506 46.6455 9.58943 46.6954L9.5919 46.6929Z" fill="#F3F3F3"/>
</g>
<g clip-path="url(#clip1_1286_15822)">
<path d="M111.428 23.969L105.387 23.6106C105.387 23.6106 99.3681 23.4903 96.0333 19.3983C95.1027 18.2569 94.3513 16.3349 94.2162 14.5724C93.8798 10.1834 93.5778 5.78952 93.261 1.39807C93.261 1.08632 93.0105 0.833491 92.7134 0.821218C92.3991 0.808944 92.124 1.06914 92.1216 1.39807C91.7999 5.81407 91.4807 10.2301 91.159 14.6461C90.798 17.874 89.9729 19.3787 88.0969 20.7803C86.346 22.0887 83.9174 22.101 82.1617 20.7975C80.2733 19.3959 79.3795 17.5156 79.075 14.6682L78.1124 1.39807C78.0854 1.10596 77.8423 0.828582 77.5549 0.821218C77.2578 0.813854 77 1.09614 76.973 1.39807C76.6586 5.7257 76.3321 10.2963 76.03 14.624C75.4579 22.8079 68.4766 22.722 65.8319 22.722L33.3885 23.9567C33.0693 23.9616 32.809 24.2169 32.7991 24.5262C32.7893 24.8478 33.0545 25.1276 33.3885 25.1325C44.7751 25.4737 54.4428 25.8174 65.8319 26.1586C67.2611 26.2543 69.3434 26.5047 70.4067 27.1159C75.1509 29.6516 74.9201 35.2213 74.8661 36.839C74.812 38.464 74.2669 40.1307 73.7733 41.0512C73.486 41.5839 72.7297 43.0272 71.7573 43.9036C70.5393 45.0008 68.4054 46.3975 65.2205 46.3902C64.9282 46.3902 64.6802 46.3043 64.4052 46.2085C65.078 45.8207 66.9517 44.8977 68.9972 42.1018C71.7033 38.4002 71.6394 33.8639 69.2354 31.3724C68.7418 30.8593 67.7374 30.1573 66.0627 30.0468C63.4917 29.875 56.5399 29.4528 54.3372 37.9681C53.7847 40.1062 53.77 43.7293 56.2035 45.8968C56.1667 45.9164 56.1347 45.9434 56.0954 45.9557C53.5048 46.6774 50.865 45.5409 50.3174 42.6394C49.5095 38.3633 50.9338 33.4711 52.7902 30.8299C52.9523 30.5991 52.6772 30.2898 52.3973 30.2898L45.5192 30.5353C45.3473 30.5353 45.1926 30.6409 45.1312 30.8004C44.5836 32.2192 42.1574 39.1513 43.7315 44.0754C42.3858 45.369 40.4999 46.184 38.7687 45.7716C38.1818 45.6317 37.7349 45.2487 37.4697 44.9272C37.1578 44.5492 36.9196 44.1122 36.7625 43.6483C35.3554 39.4679 38.1204 32.8108 38.7294 30.7611C38.8006 30.5255 38.6214 30.2898 38.3758 30.2898L31.4093 30.5353C31.2472 30.5353 31.1023 30.6409 31.0557 30.7955C30.3853 33.0563 25.9848 49.3555 37.4722 49.3555C40.6374 49.3555 43.1299 48.2656 45.0894 46.6136C46.4646 48.2656 48.9717 49.3555 52.552 49.3555C55.4914 49.3555 57.4337 48.8522 59.3491 48.1306C61.9349 49.2057 64.1523 49.3751 65.5667 49.4045C69.697 49.4856 75.6101 48.1453 78.3653 44.1417C79.296 42.7891 80.0056 40.98 80.1382 40.6364C80.3691 40.0374 80.7178 39.0506 81.3562 35.9062C81.5232 35.0839 81.8203 33.5497 81.8203 33.5497C82.4932 29.7793 83.7652 28.4685 85.5651 28.4685C87.3651 28.4685 88.4013 29.5559 89.3492 33.5399C89.553 34.3916 89.995 36.8831 90.1571 37.8626C90.5402 40.1872 91.3923 46.8345 91.5961 48.2877C91.6698 48.8105 92.1019 49.3653 92.7502 49.3653C93.3985 49.3653 93.8086 48.7958 93.8651 48.2263C94.1425 45.4525 94.889 38.9721 95.0413 37.6515C95.2893 35.4987 95.6404 31.203 97.6221 28.8514C99.8469 26.4114 103.405 25.9868 105.136 25.7707C107.479 25.5032 109.082 25.4811 111.425 25.216C111.759 25.1816 112.007 24.892 111.995 24.5679C111.985 24.2586 111.739 23.9984 111.425 23.9641L111.428 23.969ZM60.4124 39.8975C60.7783 38.3511 61.8244 35.8031 63.2142 34.0848C63.8281 33.3238 64.6139 32.3542 65.4071 32.5432C65.9375 32.6684 66.1045 33.4588 65.9571 34.4113C65.7091 36.0191 63.3714 42.3056 60.933 43.5403C60.4787 43.1058 59.9458 41.8809 60.4124 39.9V39.8975Z" fill="#F3F3F3"/>
<path d="M10.6843 10.5541L0.44692 12.0269C0.198904 12.0269 0 12.2282 0 12.4737L1.2278 47.4555C1.2278 47.7035 1.42916 47.9023 1.67472 47.9023L10.3062 49.3751C10.3062 49.3751 28.2443 49.785 28.2443 29.3865C28.2443 8.98802 10.6843 10.5541 10.6843 10.5541ZM10.041 46.7388C9.89853 46.7535 9.7733 46.6406 9.7733 46.4982V13.4016C9.7733 13.2567 9.89116 13.1389 10.036 13.1389C10.5812 13.1389 11.1214 13.2052 11.6494 13.3377C13.8864 13.8925 19.8535 14.9996 19.8535 30.4224C19.8535 43.69 14.4807 45.5262 11.9514 46.4C11.4357 46.5792 10.4977 46.6921 10.0385 46.7412L10.041 46.7388Z" fill="#F3F3F3"/>
</g>
<defs>
<clipPath id="clip0_1286_15822">
<rect width="112" height="49.4118" fill="white"/>
</clipPath>
<clipPath id="clip1_1286_15822">
<rect width="112" height="48.5882" fill="white" transform="translate(0 0.82373)"/>
</clipPath>
</defs>
</svg>
