<svg width="136" height="59" viewBox="0 0 136 59" fill="none" xmlns="http://www.w3.org/2000/svg">
<g clip-path="url(#clip0_1277_15786)">
<path d="M135.305 28.1051L127.97 27.6699C127.97 27.6699 120.661 27.5239 116.612 22.555C115.482 21.169 114.57 18.8351 114.406 16.695C113.997 11.3655 113.63 6.03003 113.246 0.697553C113.246 0.319004 112.941 0.0119919 112.581 -0.00291161C112.199 -0.0178151 111.865 0.298139 111.862 0.697553C111.471 6.05983 111.084 11.4221 110.693 16.7844C110.255 20.704 109.253 22.5312 106.975 24.2332C104.849 25.8219 101.9 25.8368 99.7679 24.254C97.4748 22.5521 96.3895 20.2688 96.0197 16.8112L94.8509 0.697553C94.8181 0.34285 94.5229 0.00603049 94.174 -0.00291161C93.8132 -0.0118537 93.5001 0.330927 93.4673 0.697553C93.0856 5.95253 92.6891 11.5026 92.3223 16.7576C91.6275 26.6952 83.1503 26.5909 79.9389 26.5909L40.5433 28.0902C40.1557 28.0962 39.8396 28.4062 39.8277 28.7817C39.8157 29.1722 40.1378 29.512 40.5433 29.518C54.3699 29.9323 66.1093 30.3496 79.9389 30.7639C81.6743 30.8801 84.2029 31.1842 85.494 31.9264C91.2548 35.0054 90.9745 41.7686 90.9089 43.7329C90.8433 45.7061 90.1814 47.73 89.582 48.8478C89.2331 49.4946 88.3148 51.2473 87.134 52.3114C85.655 53.6438 83.0638 55.3398 79.1964 55.3308C78.8416 55.3308 78.5404 55.2265 78.2064 55.1103C79.0235 54.6393 81.2986 53.5186 83.7824 50.1235C87.0684 45.6286 86.9908 40.1203 84.0717 37.0949C83.4723 36.4719 82.2528 35.6194 80.2192 35.4853C77.0972 35.2767 68.6557 34.764 65.9811 45.104C65.3102 47.7002 65.2923 52.0997 68.2472 54.7317C68.2025 54.7556 68.1637 54.7883 68.116 54.8032C64.9702 55.6796 61.7648 54.2995 61.0998 50.7763C60.1188 45.5839 61.8483 39.6434 64.1025 36.4362C64.2993 36.156 63.9654 35.7804 63.6254 35.7804L55.2734 36.0785C55.0647 36.0785 54.8768 36.2066 54.8023 36.4004C54.1373 38.1232 51.1913 46.5407 53.1027 52.52C51.4686 54.0909 49.1786 55.0805 47.0764 54.5797C46.3638 54.4098 45.8211 53.9448 45.4991 53.5543C45.1204 53.0953 44.8311 52.5647 44.6403 52.0014C42.9317 46.9253 46.2892 38.8416 47.0287 36.3527C47.1152 36.0666 46.8975 35.7804 46.5993 35.7804L38.14 36.0785C37.9432 36.0785 37.7672 36.2066 37.7106 36.3944C36.8966 39.1397 31.5532 58.9315 45.502 58.9315C49.3456 58.9315 52.3721 57.6081 54.7516 55.6021C56.4214 57.6081 59.4658 58.9315 63.8133 58.9315C67.3825 58.9315 69.7411 58.3205 72.0669 57.4441C75.2068 58.7497 77.8993 58.9554 79.6168 58.9911C84.6322 59.0895 91.8124 57.462 95.158 52.6005C96.2881 50.9581 97.1498 48.7614 97.3109 48.3441C97.5911 47.6168 98.0146 46.4185 98.7898 42.6003C98.9926 41.6017 99.3534 39.7388 99.3534 39.7388C100.17 35.1604 101.715 33.5687 103.901 33.5687C106.086 33.5687 107.345 34.8892 108.496 39.7269C108.743 40.7612 109.28 43.7866 109.477 44.9759C109.942 47.7986 110.976 55.8703 111.224 57.6349C111.313 58.2698 111.838 58.9434 112.625 58.9434C113.413 58.9434 113.911 58.2519 113.979 57.5604C114.316 54.1922 115.223 46.3232 115.407 44.7195C115.709 42.1055 116.135 36.8892 118.541 34.0337C121.243 31.0709 125.563 30.5552 127.666 30.2929C130.51 29.968 132.457 29.9412 135.302 29.6193C135.708 29.5776 136.009 29.2258 135.994 28.8324C135.982 28.4568 135.684 28.1409 135.302 28.0991L135.305 28.1051ZM73.358 47.4469C73.8023 45.569 75.0726 42.4751 76.7603 40.3886C77.5057 39.4646 78.4599 38.2872 79.423 38.5167C80.0671 38.6687 80.2699 39.6285 80.0909 40.785C79.7898 42.7374 76.9511 50.3709 73.9902 51.8702C73.4385 51.3427 72.7915 49.8553 73.358 47.4499V47.4469Z" fill="#252525"/>
<path d="M12.9738 11.8154L0.542688 13.6039C0.241526 13.6039 0 13.8483 0 14.1463L1.4909 56.6243C1.4909 56.9254 1.73541 57.1668 2.03359 57.1668L12.5146 58.9552C12.5146 58.9552 34.2967 59.453 34.2967 34.6834C34.2967 9.91375 12.9738 11.8154 12.9738 11.8154ZM12.1926 55.7539C12.0196 55.7718 11.8676 55.6347 11.8676 55.4618V15.273C11.8676 15.0972 12.0107 14.9541 12.1866 14.9541C12.8486 14.9541 13.5046 15.0346 14.1457 15.1955C16.8621 15.8692 24.1079 17.2135 24.1079 35.9412C24.1079 52.0519 17.5837 54.2815 14.5124 55.3426C13.8863 55.5602 12.7472 55.6973 12.1896 55.7569L12.1926 55.7539Z" fill="#252525"/>
</g>
<defs>
<clipPath id="clip0_1277_15786">
<rect width="136" height="59" fill="white"/>
</clipPath>
</defs>
</svg>
