<svg width="83" height="27" viewBox="0 0 83 27" fill="none" xmlns="http://www.w3.org/2000/svg">
<path d="M9.69336 26.3691H4.24414C1.94141 26.3691 0.376953 25.209 0.376953 23.1699C0.376953 19.7949 2.29297 16.7891 2.29297 13.3262C2.29297 9.86328 0.904297 7.0332 0.904297 3.6582C0.904297 1.26758 2.50391 0.0371094 4.24414 0.0371094H9.69336C16.1445 0.0371094 19.7832 5.66211 19.7832 13.6953C19.7832 19.6367 17.9199 26.3691 9.69336 26.3691ZM9.69336 19.6367C13.8945 19.6367 15.0195 15.8398 15.0371 12.8164C15.0547 7.98242 12.9453 4.80078 9.69336 4.80078C4.52539 4.80078 6.19531 6.7168 6.19531 13.3262C6.19531 18.7754 4.52539 19.6367 9.69336 19.6367ZM31.1562 26.3691C24.4941 26.3691 21.7168 23.4688 21.7168 19.5664C21.7168 16.3672 22.8066 15.2773 22.8066 11.7793C22.8066 8.31641 22.0684 7.0332 22.0684 3.6582C22.0684 1.26758 23.668 0.0371094 25.4082 0.0371094C27.1484 0.0371094 28.7305 1.05664 28.7129 3.97461C28.7129 8.31641 27.0781 10.6191 27.0781 14.5566C27.0781 17.6328 27.957 20.2168 31.1211 20.2168C34.3027 20.2168 35.252 17.6328 35.2344 14.5566C35.2344 10.6191 33.5996 8.31641 33.5996 3.97461C33.5996 1.05664 35.1816 0.0371094 36.9219 0.0371094C38.6621 0.0371094 40.2617 1.26758 40.2617 3.6582C40.2617 7.0332 39.5234 8.31641 39.5059 11.7793C39.5059 15.2773 40.6133 16.3672 40.6133 19.5664C40.6133 23.4688 37.8359 26.3691 31.1562 26.3691ZM58.7012 12.0957C58.7012 13.8711 57.3828 14.8027 55.7129 14.8027C53.9199 14.8027 53.0762 14.1875 51.3535 14.1875C48.5586 14.1875 48.4355 16.0684 48.4355 17.7383C48.4355 19.6543 48.9453 20.7617 50.791 20.7617C52.6719 20.7617 54.1309 19.6895 56.3809 19.6895C58.7012 19.6895 59.8613 21.0078 59.8613 22.6953C59.8613 25.0684 58.332 26.3691 56.2227 26.3691C54.0254 26.3691 53.1289 25.8945 50.6504 25.8945C48.3828 25.8945 48.6113 26.3691 46.2559 26.3691C43.8477 26.3691 42.3887 25.0684 42.3887 23.1699C42.3887 20.1816 44.3047 16.7891 44.3047 13.3262C44.3047 9.86328 42.916 7.0332 42.916 3.6582C42.916 1.6543 44.2695 0.0371094 46.0801 0.0371094C48.4355 0.0371094 48.8574 0.511719 51.125 0.511719C53.0762 0.511719 53.9023 0.0371094 56.1699 0.0371094C57.8398 0.0371094 59.2109 0.705078 59.2109 2.74414C59.2109 4.34375 58.1035 5.22266 56.3633 5.22266C53.9199 5.22266 52.8828 4.48438 50.791 4.48438C49.1914 4.48438 48.0312 5.09961 48.0312 7.10352C48.0312 9.2832 49.1914 10.0039 51.3535 10.0039C53.0762 10.0039 53.9199 9.38867 55.7129 9.38867C57.3828 9.38867 58.7012 10.3203 58.7012 12.0957ZM71.3574 0.722656C74.5742 0.722656 75.5586 0.0371094 78.5996 0.0371094C80.6211 0.0371094 82.0625 1.12695 82.0625 3.02539C82.0625 4.83594 80.4629 5.83789 78.8633 5.83789C76.7715 5.83789 76.2793 4.83594 74.7676 4.83594C73.625 4.83594 73.4141 6.3125 73.4141 8.65039C73.4141 14.1172 75.2422 18.6699 75.2422 23.1699C75.2422 25.1738 73.7129 26.3691 71.3574 26.3691C69.002 26.3691 67.4727 25.1738 67.4727 23.1699C67.4727 18.6699 69.3008 14.1172 69.3008 8.65039C69.3008 6.3125 69.0898 4.83594 67.9473 4.83594C66.4355 4.83594 65.9434 5.83789 63.8516 5.83789C62.252 5.83789 60.6523 4.83594 60.6523 3.02539C60.6523 1.12695 62.0938 0.0371094 64.1152 0.0371094C67.1562 0.0371094 68.1406 0.722656 71.3574 0.722656Z" fill="black"/>
</svg>
