<svg width="12" height="12" viewBox="0 0 12 12" fill="none" xmlns="http://www.w3.org/2000/svg">
<path d="M10.051 6.26263H10.9983C10.9983 3.83266 9.16375 2 6.73047 2V2.94736C8.65455 2.94736 10.051 4.34139 10.051 6.26263Z" fill="#474747"/>
<path d="M6.73692 4.84214C7.73306 4.84214 8.15795 5.26703 8.15795 6.26317H9.10531C9.10531 4.73556 8.26453 3.89478 6.73692 3.89478V4.84214ZM8.35784 7.42037C8.26682 7.33764 8.14722 7.29352 8.02428 7.29732C7.90134 7.30112 7.78469 7.35255 7.69896 7.44074L6.56544 8.60646C6.29261 8.55436 5.74409 8.38336 5.17946 7.82015C4.61484 7.25506 4.44384 6.70512 4.39316 6.43417L5.55793 5.30019C5.64623 5.21451 5.69773 5.09784 5.70153 4.97487C5.70533 4.85189 5.66114 4.73226 5.5783 4.6413L3.82806 2.71674C3.74518 2.62549 3.63 2.57014 3.50698 2.56245C3.38395 2.55475 3.26277 2.59532 3.16917 2.67553L2.14129 3.55705C2.0594 3.63924 2.01052 3.74863 2.00392 3.86447C1.99682 3.98289 1.86135 6.78801 4.03648 8.96409C5.93403 10.8612 8.31095 11 8.96557 11C9.06126 11 9.11999 10.9971 9.13562 10.9962C9.25144 10.9897 9.36077 10.9406 9.44257 10.8583L10.3236 9.82997C10.4039 9.73643 10.4445 9.61529 10.4369 9.49226C10.4293 9.36924 10.3741 9.25402 10.2829 9.17108L8.35784 7.42037V7.42037Z" fill="#474747"/>
</svg>
