<svg width="14" height="14" viewBox="0 0 14 14" fill="none" xmlns="http://www.w3.org/2000/svg">
<path d="M4.29893 13.026L11.2991 6.02586L7.97414 2.70091L0.973981 9.70107C0.877611 9.79757 0.809153 9.91834 0.775871 10.0506L0 14L3.94865 13.2241C4.08123 13.191 4.20251 13.1224 4.29893 13.026ZM13.5589 3.76604C13.8413 3.48352 14 3.10039 14 2.70091C14 2.30143 13.8413 1.9183 13.5589 1.63579L12.3642 0.441096C12.0817 0.158662 11.6986 0 11.2991 0C10.8996 0 10.5165 0.158662 10.234 0.441096L9.03927 1.63579L12.3642 4.96073L13.5589 3.76604Z" fill="#474747"/>
</svg>
