<svg width="24" height="25" viewBox="0 0 24 25" fill="none" xmlns="http://www.w3.org/2000/svg">
<path d="M5.05263 20.1392C7.83916 20.1392 10.1053 17.9591 10.1053 15.2784V2.95018L21.4737 6.92632V15.9553C20.7093 15.5171 19.8371 15.2834 18.9474 15.2784C16.1608 15.2784 13.8947 17.4585 13.8947 20.1392C13.8947 22.8199 16.1608 25 18.9474 25C21.7339 25 24 22.8199 24 20.1392V6.07568C24.0002 5.82635 23.9205 5.58303 23.7718 5.37885C23.623 5.17467 23.4125 5.01954 23.1688 4.9346L9.27411 0.0737986C9.08336 0.00671588 8.8786 -0.015085 8.67722 0.010248C8.47585 0.035581 8.2838 0.107299 8.1174 0.219311C7.951 0.331322 7.81515 0.480318 7.72141 0.65364C7.62767 0.826963 7.5788 1.01949 7.57895 1.21487V11.0945C6.81457 10.6563 5.94238 10.4226 5.05263 10.4176C2.26611 10.4176 0 12.5977 0 15.2784C0 17.9591 2.26611 20.1392 5.05263 20.1392Z" fill="#F9F9F9"/>
</svg>
