<svg width="20" height="20" viewBox="0 0 20 20" fill="none" xmlns="http://www.w3.org/2000/svg">
<path d="M10.6868 0.494904C10.4668 -0.164968 9.53502 -0.164968 9.31506 0.494904L8.02531 4.36816C7.74162 5.21938 7.26362 5.99285 6.62917 6.62731C5.99471 7.26176 5.22124 7.73976 4.37002 8.02345L0.496764 9.3132C0.35227 9.36062 0.226443 9.45247 0.137237 9.57563C0.0480297 9.6988 0 9.84699 0 9.99907C0 10.1511 0.0480297 10.2993 0.137237 10.4225C0.226443 10.5457 0.35227 10.6375 0.496764 10.6849L4.37002 11.9747C5.22124 12.2584 5.99471 12.7364 6.62917 13.3708C7.26362 14.0053 7.74162 14.7788 8.02531 15.63L9.31506 19.5032C9.36248 19.6477 9.45433 19.7736 9.5775 19.8628C9.70066 19.952 9.84885 20 10.0009 20C10.153 20 10.3012 19.952 10.4244 19.8628C10.5475 19.7736 10.6394 19.6477 10.6868 19.5032L11.9766 15.632C12.26 14.7804 12.7379 14.0065 13.3723 13.3717C14.0068 12.7369 14.7804 12.2586 15.6318 11.9747L19.5051 10.6849C20.165 10.465 20.165 9.53316 19.5051 9.3132L15.6338 8.02345C14.7823 7.74003 14.0084 7.26214 13.3736 6.62768C12.7387 5.99321 12.2604 5.2196 11.9766 4.36816L10.6868 0.494904Z" fill="#F8F8F8"/>
</svg>
