<svg width="124" height="124" viewBox="0 0 124 124" fill="none" xmlns="http://www.w3.org/2000/svg">
<path d="M62 33.125C42.1129 33.125 26 48.7344 26 68C26 87.2656 42.1129 102.875 62 102.875C81.8871 102.875 98 87.2656 98 68C98 48.7344 81.8871 33.125 62 33.125ZM73.6129 56.75C76.1823 56.75 78.2581 58.7609 78.2581 61.25C78.2581 63.7391 76.1823 65.75 73.6129 65.75C71.0435 65.75 68.9677 63.7391 68.9677 61.25C68.9677 58.7609 71.0435 56.75 73.6129 56.75ZM48.0645 90.5C44.2177 90.5 41.0968 87.5469 41.0968 83.8906C41.0968 81.0781 45.2339 75.3969 47.1355 72.95C47.6 72.3453 48.529 72.3453 48.9935 72.95C50.8952 75.3969 55.0323 81.0781 55.0323 83.8906C55.0323 87.5469 51.9113 90.5 48.0645 90.5ZM50.3871 65.75C47.8177 65.75 45.7419 63.7391 45.7419 61.25C45.7419 58.7609 47.8177 56.75 50.3871 56.75C52.9565 56.75 55.0323 58.7609 55.0323 61.25C55.0323 63.7391 52.9565 65.75 50.3871 65.75ZM75.0935 87.4344C71.8419 83.6656 67.0661 81.5 62 81.5C58.9226 81.5 58.9226 77 62 77C68.4452 77 74.5274 79.7562 78.65 84.5656C80.6532 86.8719 77.0242 89.6984 75.0935 87.4344Z" fill="#474747"/>
<path d="M26.7866 52.9943C27.2311 45.5673 31.7257 39.3341 38.2097 34.8333C45.0505 30.0848 53.9383 27.3994 62.0003 27.3994C70.0623 27.3994 78.9501 30.0848 85.7908 34.8333C92.2748 39.3341 96.7695 45.5673 97.214 52.9943C96.617 53.1408 96.112 53.4042 95.6486 53.8186C95.353 54.083 95.0952 54.3933 94.8896 54.6407C94.8759 54.6572 94.8624 54.6734 94.8492 54.6893C94.6185 54.9665 94.3849 55.2447 94.0736 55.556C92.3389 57.2908 91.3643 59.6435 91.3643 62.0968V79.6977C91.3643 82.1509 92.3389 84.5037 94.0736 86.2384C95.8083 87.9731 98.1611 88.9477 100.614 88.9477H105.101C107.554 88.9477 109.907 87.9731 111.642 86.2384C113.377 84.5037 114.351 82.1509 114.351 79.6977V60.6977C114.351 56.8672 111.608 53.6774 107.979 52.9858C107.577 41.5786 101.567 32.8049 93.0783 26.8818C84.322 20.7716 72.8862 17.6494 62.0003 17.6494C51.1143 17.6494 39.6786 20.7716 30.9222 26.8818C22.434 32.8049 16.424 41.5786 16.0218 52.9858C12.3927 53.6774 9.64941 56.8672 9.64941 60.6977V79.6977C9.64941 82.1509 10.624 84.5037 12.3587 86.2384C14.0934 87.9731 16.4462 88.9477 18.8994 88.9477H23.3863C25.8395 88.9477 28.1923 87.9731 29.927 86.2384C31.6617 84.5037 32.6363 82.1509 32.6363 79.6977V62.0968C32.6363 59.6435 31.6617 57.2908 29.927 55.556C29.6156 55.2447 29.3821 54.9665 29.1514 54.6893C29.1382 54.6735 29.1247 54.6573 29.1111 54.6408C28.9054 54.3933 28.6476 54.083 28.352 53.8186C27.8886 53.4042 27.3836 53.1408 26.7866 52.9943Z" fill="#474747" stroke="#252525" stroke-width="3"/>
</svg>
