<svg width="16" height="20" viewBox="0 0 16 20" fill="none" xmlns="http://www.w3.org/2000/svg">
<path d="M12.6665 7.20033V5.33366C12.6665 4.09598 12.1749 2.909 11.2997 2.03383C10.4245 1.15866 9.23755 0.666992 7.99987 0.666992C6.76219 0.666992 5.57521 1.15866 4.70004 2.03383C3.82487 2.909 3.3332 4.09598 3.3332 5.33366V7.20033C2.5906 7.20033 1.87841 7.49532 1.3533 8.02043C0.828202 8.54553 0.533203 9.25772 0.533203 10.0003V16.5337C0.533203 17.2763 0.828202 17.9885 1.3533 18.5136C1.87841 19.0387 2.5906 19.3337 3.3332 19.3337H12.6665C13.4091 19.3337 14.1213 19.0387 14.6464 18.5136C15.1715 17.9885 15.4665 17.2763 15.4665 16.5337V10.0003C15.4665 9.25772 15.1715 8.54553 14.6464 8.02043C14.1213 7.49532 13.4091 7.20033 12.6665 7.20033ZM5.19987 5.33366C5.19987 4.59105 5.49487 3.87886 6.01997 3.35376C6.54507 2.82866 7.25726 2.53366 7.99987 2.53366C8.74248 2.53366 9.45467 2.82866 9.97977 3.35376C10.5049 3.87886 10.7999 4.59105 10.7999 5.33366V7.20033H5.19987V5.33366ZM13.5999 16.5337C13.5999 16.7812 13.5015 17.0186 13.3265 17.1936C13.1515 17.3687 12.9141 17.467 12.6665 17.467H3.3332C3.08567 17.467 2.84827 17.3687 2.67324 17.1936C2.4982 17.0186 2.39987 16.7812 2.39987 16.5337V10.0003C2.39987 9.75279 2.4982 9.51539 2.67324 9.34036C2.84827 9.16533 3.08567 9.06699 3.3332 9.06699H12.6665C12.9141 9.06699 13.1515 9.16533 13.3265 9.34036C13.5015 9.51539 13.5999 9.75279 13.5999 10.0003V16.5337Z" fill="white"/>
</svg>
