<svg width="64" height="28" viewBox="0 0 64 28" fill="none" xmlns="http://www.w3.org/2000/svg">
<g clip-path="url(#clip0_1610_9268)">
<path d="M63.6726 13.2256L60.2207 13.0208C60.2207 13.0208 56.7815 12.9521 54.8759 10.6138C54.3441 9.96154 53.9147 8.86324 53.8375 7.85611C53.6453 5.34812 53.4727 2.83732 53.2917 0.327916C53.2917 0.149775 53.1486 0.00529858 52.9788 -0.00171484C52.7992 -0.00872825 52.642 0.139956 52.6406 0.327916C52.4568 2.85134 52.2744 5.37477 52.0906 7.8982C51.8843 9.74272 51.4128 10.6026 50.3408 11.4035C49.3403 12.1511 47.9525 12.1581 46.9492 11.4133C45.8702 10.6124 45.3594 9.53793 45.1854 7.91082L44.6354 0.327916C44.6199 0.160996 44.481 0.00249321 44.3168 -0.00171484C44.147 -0.00592289 43.9997 0.155386 43.9843 0.327916C43.8047 2.80085 43.618 5.41264 43.4454 7.88557C43.1185 12.5621 39.1292 12.513 37.6179 12.513L19.0789 13.2186C18.8964 13.2214 18.7477 13.3673 18.7421 13.544C18.7365 13.7277 18.888 13.8877 19.0789 13.8905C25.5855 14.0854 31.1099 14.2818 37.6179 14.4768C38.4346 14.5315 39.6245 14.6746 40.2321 15.0238C42.9431 16.4728 42.8112 19.6555 42.7803 20.5799C42.7495 21.5084 42.4379 22.4609 42.1559 22.9869C41.9917 23.2912 41.5595 24.116 41.0039 24.6168C40.3079 25.2438 39.0885 26.0419 37.2686 26.0377C37.1016 26.0377 36.9598 25.9886 36.8027 25.9339C37.1872 25.7123 38.2578 25.1849 39.4267 23.5872C40.973 21.472 40.9365 18.8798 39.5628 17.4561C39.2807 17.1629 38.7068 16.7617 37.7498 16.6986C36.2807 16.6004 32.3082 16.3592 31.0496 21.2251C30.7338 22.4468 30.7254 24.5172 32.116 25.7558C32.0949 25.767 32.0767 25.7824 32.0543 25.7894C30.5739 26.2018 29.0654 25.5524 28.7525 23.8944C28.2909 21.4509 29.1047 18.6554 30.1655 17.1461C30.2582 17.0142 30.101 16.8375 29.941 16.8375L26.0107 16.9778C25.9124 16.9778 25.824 17.0381 25.789 17.1293C25.476 17.94 24.0897 21.9012 24.9891 24.715C24.2202 25.4542 23.1425 25.9199 22.1533 25.6842C21.8179 25.6043 21.5625 25.3854 21.411 25.2017C21.2328 24.9857 21.0967 24.736 21.0069 24.4709C20.2028 22.0821 21.7828 18.278 22.1308 17.1068C22.1715 16.9722 22.0691 16.8375 21.9288 16.8375L17.9479 16.9778C17.8553 16.9778 17.7725 17.0381 17.7458 17.1264C17.3627 18.4183 14.8482 27.7321 21.4124 27.7321C23.2211 27.7321 24.6454 27.1093 25.7651 26.1653C26.5509 27.1093 27.9836 27.7321 30.0294 27.7321C31.7091 27.7321 32.819 27.4446 33.9135 27.0322C35.3911 27.6466 36.6582 27.7434 37.4664 27.7602C39.8266 27.8065 43.2055 27.0406 44.7799 24.7528C45.3117 23.98 45.7172 22.9462 45.793 22.7498C45.9249 22.4075 46.1242 21.8437 46.489 20.0468C46.5844 19.5769 46.7542 18.7003 46.7542 18.7003C47.1387 16.5457 47.8655 15.7967 48.8941 15.7967C49.9226 15.7967 50.5148 16.4181 51.0564 18.6946C51.1729 19.1814 51.4254 20.6051 51.5181 21.1648C51.737 22.4931 52.2239 26.2916 52.3403 27.122C52.3824 27.4207 52.6294 27.7377 52.9998 27.7377C53.3703 27.7377 53.6046 27.4123 53.6369 27.0869C53.7955 25.5019 54.222 21.7988 54.309 21.0441C54.4507 19.814 54.6514 17.3593 55.7838 16.0155C57.0551 14.6213 59.0883 14.3786 60.0776 14.2552C61.4162 14.1023 62.3325 14.0896 63.6712 13.9381C63.862 13.9185 64.0037 13.753 63.9967 13.5678C63.9911 13.3911 63.8508 13.2424 63.6712 13.2228L63.6726 13.2256ZM34.5211 22.3276C34.7302 21.4439 35.3279 19.9879 36.1221 19.006C36.4729 18.5712 36.922 18.0172 37.3752 18.1252C37.6783 18.1967 37.7737 18.6484 37.6895 19.1926C37.5478 20.1114 36.2119 23.7036 34.8186 24.4092C34.559 24.1609 34.2545 23.461 34.5211 22.329V22.3276Z" fill="#F9F9F9"/>
<path d="M6.10533 5.5598L0.255383 6.40141C0.113659 6.40141 0 6.51643 0 6.6567L0.701601 26.6463C0.701601 26.788 0.816663 26.9016 0.956983 26.9016L5.88924 27.7432C5.88924 27.7432 16.1396 27.9775 16.1396 16.3212C16.1396 4.66489 6.10533 5.5598 6.10533 5.5598ZM5.73769 26.2367C5.6563 26.2452 5.58474 26.1806 5.58474 26.0993V7.18691C5.58474 7.10416 5.65209 7.03683 5.73488 7.03683C6.04639 7.03683 6.3551 7.0747 6.65679 7.15044C7.9351 7.46745 11.3449 8.10006 11.3449 16.9131C11.3449 24.4946 8.27468 25.5438 6.82938 26.0432C6.53471 26.1456 5.99868 26.2101 5.73629 26.2381L5.73769 26.2367Z" fill="#F9F9F9"/>
</g>
<defs>
<clipPath id="clip0_1610_9268">
<rect width="64" height="27.7647" fill="white"/>
</clipPath>
</defs>
</svg>
