<svg width="30" height="24" viewBox="0 0 30 24" fill="none" xmlns="http://www.w3.org/2000/svg">
<path d="M27 0H3C2.20435 0 1.44129 0.31607 0.87868 0.878679C0.31607 1.44129 0 2.20435 0 3V21C0 21.7957 0.31607 22.5587 0.87868 23.1213C1.44129 23.6839 2.20435 24 3 24H27C27.7957 24 28.5587 23.6839 29.1213 23.1213C29.6839 22.5587 30 21.7957 30 21V3C30 2.20435 29.7731 1.36261 29.2105 0.8C28.6479 0.237391 27.7957 0 27 0ZM27 6.73491C27 6.93358 26.9089 7.12099 26.7536 7.24214L15.3851 16.1057C15.1581 16.2827 14.8419 16.2827 14.6149 16.1057L3.24644 7.24214C3.09105 7.12099 3 6.93358 3 6.73491V5.064C3 4.533 3.60134 4.23296 4.01668 4.55673L14.6149 12.8185C14.8419 12.9955 15.1581 12.9955 15.3851 12.8185L25.9833 4.55673C26.3987 4.23296 27 4.533 27 5.064V6.73491Z" fill="#F9F9F9"/>
</svg>
