<svg width="22" height="20" viewBox="0 0 22 20" fill="none" xmlns="http://www.w3.org/2000/svg">
<path d="M9.86926 0C9.59542 0 9.32158 0.063158 9.05827 0.157895L1.30646 3.36842C0.232163 3.81053 -0.283922 5.04211 0.158437 6.10526L5.38248 18.6842C5.70899 19.4947 6.47785 19.9789 7.28884 20C7.56268 20 7.84705 19.9684 8.12089 19.8421L15.8832 16.6316C16.6732 16.3053 17.1577 15.5263 17.1787 14.7368C17.1892 14.4737 17.1366 14.1684 17.0418 13.8947L11.7756 1.31579C11.4702 0.505263 10.6908 0.0105263 9.86926 0ZM13.5345 0L17.1682 8.78947V2.10526C17.1682 1.54691 16.9463 1.01143 16.5512 0.616617C16.1562 0.221804 15.6204 0 15.0617 0H13.5345ZM19.2852 1.62105V11.1263L21.8445 4.95789C22.2764 3.88421 21.7814 2.66316 20.6965 2.22105L19.2852 1.62105ZM9.86926 2.07368L15.1144 14.7263L7.33097 17.9474L2.08586 5.30526" fill="#F9F9F9"/>
</svg>
