<svg width="20" height="20" viewBox="0 0 20 20" fill="none" xmlns="http://www.w3.org/2000/svg">
<g clip-path="url(#clip0_168_266)">
<path fill-rule="evenodd" clip-rule="evenodd" d="M19.955 0.857258C20.0004 0.743678 20.0116 0.619252 19.987 0.499407C19.9624 0.379562 19.9032 0.269567 19.8167 0.183059C19.7302 0.0965504 19.6202 0.0373335 19.5003 0.0127492C19.3805 -0.0118351 19.256 -0.000705742 19.1425 0.0447576L19.0237 0.0922576L0.958711 7.31726L0.957461 7.31851L0.392461 7.54351C0.285448 7.58619 0.192318 7.65763 0.123355 7.74992C0.0543929 7.84221 0.0122831 7.95177 0.00167746 8.06649C-0.00892821 8.18122 0.0123829 8.29664 0.0632569 8.40001C0.114131 8.50338 0.192588 8.59068 0.289961 8.65226L0.802461 8.97726L0.803711 8.97976L6.50746 12.6085L7.04746 12.9523L7.39121 13.4923L11.02 19.196L11.0225 19.1985L11.3475 19.711C11.4092 19.808 11.4966 19.8861 11.5999 19.9366C11.7032 19.9872 11.8184 20.0083 11.9329 19.9975C12.0474 19.9868 12.1567 19.9447 12.2488 19.8758C12.3409 19.807 12.4123 19.714 12.455 19.6073L12.6812 19.041L19.9075 0.974758L19.955 0.856008V0.857258ZM17.6637 3.21976L18.2525 1.74726L16.78 2.33601L7.41246 11.7035L7.83496 11.9723C7.91249 12.0215 7.97822 12.0872 8.02746 12.1648L8.29621 12.5873L17.6637 3.21976Z" fill="#0A0A0A"/>
</g>
<defs>
<clipPath id="clip0_168_266">
<rect width="20" height="20" fill="white"/>
</clipPath>
</defs>
</svg>
