<svg width="36" height="36" viewBox="0 0 36 36" fill="none" xmlns="http://www.w3.org/2000/svg">
<g clip-path="url(#clip0_168_299)">
<path d="M17.2281 14.0553C17.4756 13.3128 18.5241 13.3128 18.7716 14.0553L20.2228 18.4136C20.5423 19.3716 21.0805 20.2421 21.7948 20.956C22.5091 21.6699 23.3798 22.2076 24.3381 22.5266L28.6941 23.9778C29.4366 24.2253 29.4366 25.2738 28.6941 25.5213L24.3358 26.9726C23.3778 27.292 22.5073 27.8302 21.7934 28.5445C21.0795 29.2588 20.5417 30.1296 20.2228 31.0878L18.7716 35.4438C18.7182 35.6064 18.6149 35.748 18.4763 35.8484C18.3377 35.9487 18.1709 36.0028 17.9998 36.0028C17.8287 36.0028 17.6619 35.9487 17.5234 35.8484C17.3848 35.748 17.2814 35.6064 17.2281 35.4438L15.7768 31.0856C15.4576 30.1277 14.9198 29.2574 14.2059 28.5435C13.492 27.8296 12.6216 27.2918 11.6638 26.9726L7.30557 25.5213C7.14298 25.468 7.0014 25.3646 6.90102 25.226C6.80064 25.0874 6.7466 24.9207 6.7466 24.7496C6.7466 24.5784 6.80064 24.4117 6.90102 24.2731C7.0014 24.1345 7.14298 24.0312 7.30557 23.9778L11.6638 22.5266C12.6216 22.2073 13.492 21.6695 14.2059 20.9556C14.9198 20.2417 15.4576 19.3714 15.7768 18.4136L17.2281 14.0553ZM8.53632 2.58256C8.56858 2.48512 8.63073 2.40033 8.71394 2.34023C8.79715 2.28014 8.89718 2.24779 8.99982 2.24779C9.10246 2.24779 9.20249 2.28014 9.2857 2.34023C9.3689 2.40033 9.43105 2.48512 9.46332 2.58256L10.3341 5.19706C10.7233 6.36256 11.6368 7.27606 12.8023 7.66531L15.4168 8.53606C15.5143 8.56833 15.599 8.63048 15.6591 8.71368C15.7192 8.79689 15.7516 8.89692 15.7516 8.99956C15.7516 9.1022 15.7192 9.20223 15.6591 9.28544C15.599 9.36864 15.5143 9.4308 15.4168 9.46306L12.8023 10.3338C12.2275 10.5253 11.7052 10.8481 11.2768 11.2765C10.8483 11.7049 10.5256 12.2272 10.3341 12.8021L9.46332 15.4166C9.43105 15.514 9.3689 15.5988 9.2857 15.6589C9.20249 15.719 9.10246 15.7513 8.99982 15.7513C8.89718 15.7513 8.79715 15.719 8.71394 15.6589C8.63073 15.5988 8.56858 15.514 8.53632 15.4166L7.66557 12.8021C7.47406 12.2272 7.1513 11.7049 6.72288 11.2765C6.29445 10.8481 5.77214 10.5253 5.19732 10.3338L2.58282 9.46306C2.48538 9.4308 2.40059 9.36864 2.34049 9.28544C2.28039 9.20223 2.24805 9.1022 2.24805 8.99956C2.24805 8.89692 2.28039 8.79689 2.34049 8.71368C2.40059 8.63048 2.48538 8.56833 2.58282 8.53606L5.19732 7.66531C5.77214 7.4738 6.29445 7.15104 6.72288 6.72262C7.1513 6.2942 7.47406 5.77188 7.66557 5.19706L8.53632 2.58256ZM24.4416 0.222311C24.4638 0.158245 24.5054 0.102691 24.5606 0.0633742C24.6159 0.024057 24.682 0.00292969 24.7498 0.00292969C24.8176 0.00292969 24.8837 0.024057 24.939 0.0633742C24.9942 0.102691 25.0359 0.158245 25.0581 0.222311L25.6386 1.96381C25.8973 2.74231 26.5071 3.35206 27.2856 3.61081L29.0271 4.19131C29.0911 4.21352 29.1467 4.25514 29.186 4.31039C29.2253 4.36563 29.2464 4.43175 29.2464 4.49956C29.2464 4.56737 29.2253 4.63349 29.186 4.68873C29.1467 4.74398 29.0911 4.7856 29.0271 4.80781L27.2856 5.38831C26.9019 5.51594 26.5533 5.73125 26.2674 6.01715C25.9815 6.30305 25.7662 6.65166 25.6386 7.03531L25.0581 8.77681C25.0359 8.84088 24.9942 8.89643 24.939 8.93575C24.8837 8.97506 24.8176 8.99619 24.7498 8.99619C24.682 8.99619 24.6159 8.97506 24.5606 8.93575C24.5054 8.89643 24.4638 8.84088 24.4416 8.77681L23.8611 7.03531C23.7334 6.65166 23.5181 6.30305 23.2322 6.01715C22.9463 5.73125 22.5977 5.51594 22.2141 5.38831L20.4748 4.80781C20.4108 4.7856 20.3552 4.74398 20.3159 4.68873C20.2766 4.63349 20.2554 4.56737 20.2554 4.49956C20.2554 4.43175 20.2766 4.36563 20.3159 4.31039C20.3552 4.25514 20.4108 4.21352 20.4748 4.19131L22.2163 3.61081C22.9948 3.35206 23.6046 2.74231 23.8633 1.96381L24.4416 0.224561V0.222311Z" fill="black"/>
</g>
<defs>
<clipPath id="clip0_168_299">
<rect width="36" height="36" fill="white"/>
</clipPath>
</defs>
</svg>
