<svg width="16" height="16" viewBox="0 0 16 16" fill="none" xmlns="http://www.w3.org/2000/svg">
<path d="M15.0014 0.999941C14.4491 0.44767 13.5537 0.447617 13.0014 0.999824L8 6L3 1C2.44772 0.447716 1.55228 0.447715 1 1C0.447715 1.55228 0.447715 2.44772 1 3L6 8L1 13C0.447716 13.5523 0.447715 14.4477 1 15C1.55228 15.5523 2.44771 15.5523 3 15L8 10L13.0014 15.0002C13.5537 15.5524 14.4491 15.5523 15.0014 15.0001C15.5537 14.4477 15.5537 13.5523 15.0014 12.9999L10.0014 8L15.0014 3.00006C15.5537 2.44774 15.5537 1.55226 15.0014 0.999941Z" fill="#F9F9F9"/>
</svg>
