<svg width="20" height="15" viewBox="0 0 20 15" fill="none" xmlns="http://www.w3.org/2000/svg">
<path d="M18 0H2C1.46957 0 0.960859 0.197544 0.585786 0.549175C0.210714 0.900805 0 1.37772 0 1.875V13.125C0 13.6223 0.210714 14.0992 0.585786 14.4508C0.960859 14.8025 1.46957 15 2 15H18C18.5304 15 19.0391 14.8025 19.4142 14.4508C19.7893 14.0992 20 13.6223 20 13.125V1.875C20 1.37772 19.8488 0.851631 19.4737 0.5C19.0986 0.148369 18.5304 0 18 0ZM18 4.20932C18 4.33349 17.9393 4.45062 17.8357 4.52634L10.2568 10.0661C10.1054 10.1767 9.89461 10.1767 9.74324 10.0661L2.16429 4.52634C2.0607 4.45062 2 4.33349 2 4.20932V3.165C2 2.83312 2.40089 2.6456 2.67778 2.84796L9.74327 8.01156C9.89462 8.12217 10.1054 8.12217 10.2567 8.01156L17.3222 2.84796C17.5991 2.6456 18 2.83312 18 3.165V4.20932Z" fill="#F9F9F9"/>
</svg>
