<svg width="14" height="14" viewBox="0 0 14 14" fill="none" xmlns="http://www.w3.org/2000/svg">
<path d="M12.5997 0H4.19978C3.82849 0 3.4724 0.147497 3.20985 0.410044C2.9473 0.672591 2.7998 1.02868 2.7998 1.39998V9.79986C2.7998 10.1712 2.9473 10.5272 3.20985 10.7898C3.4724 11.0523 3.82849 11.1998 4.19978 11.1998H12.5997C12.971 11.1998 13.327 11.0523 13.5896 10.7898C13.8521 10.5272 13.9996 10.1712 13.9996 9.79986V1.39998C13.9996 1.02868 13.8521 0.672591 13.5896 0.410044C13.327 0.147497 12.971 0 12.5997 0ZM8.39972 1.74997C8.86384 1.74997 9.30896 1.93435 9.63714 2.26253C9.96532 2.59071 10.1497 3.03583 10.1497 3.49995C10.1497 3.96407 9.96532 4.40918 9.63714 4.73737C9.30896 5.06555 8.86384 5.24992 8.39972 5.24992C7.9356 5.24992 7.49049 5.06555 7.1623 4.73737C6.83412 4.40918 6.64975 3.96407 6.64975 3.49995C6.64975 3.03583 6.83412 2.59071 7.1623 2.26253C7.49049 1.93435 7.9356 1.74997 8.39972 1.74997ZM11.8997 9.09987H4.89977V8.92487C4.89977 7.63059 6.47755 6.29991 8.39972 6.29991C10.3219 6.29991 11.8997 7.63059 11.8997 8.92487V9.09987Z" fill="#252525"/>
<path d="M1.39998 4.19922H0V12.5991C0 13.3712 0.627891 13.9991 1.39998 13.9991H9.79986V12.5991H1.39998V4.19922Z" fill="#252525"/>
</svg>
