<svg width="28" height="28" viewBox="0 0 28 28" fill="none" xmlns="http://www.w3.org/2000/svg">
<path fill-rule="evenodd" clip-rule="evenodd" d="M14 5.76275L24.5 16.2628V23.625C24.5 24.3212 24.2234 24.9889 23.7312 25.4812C23.2389 25.9734 22.5712 26.25 21.875 26.25H6.125C5.42881 26.25 4.76113 25.9734 4.26884 25.4812C3.77656 24.9889 3.5 24.3212 3.5 23.625V16.2628L14 5.76275V5.76275ZM22.75 4.375V10.5L19.25 7V4.375C19.25 4.14294 19.3422 3.92038 19.5063 3.75628C19.6704 3.59219 19.8929 3.5 20.125 3.5H21.875C22.1071 3.5 22.3296 3.59219 22.4937 3.75628C22.6578 3.92038 22.75 4.14294 22.75 4.375Z" fill="#F9F9F9"/>
<path fill-rule="evenodd" clip-rule="evenodd" d="M12.7629 2.62468C13.0911 2.29661 13.5361 2.1123 14.0001 2.1123C14.4642 2.1123 14.9092 2.29661 15.2374 2.62468L26.8696 14.2552C27.0339 14.4195 27.1262 14.6423 27.1262 14.8747C27.1262 15.107 27.0339 15.3299 26.8696 15.4942C26.7053 15.6585 26.4825 15.7508 26.2501 15.7508C26.0178 15.7508 25.7949 15.6585 25.6306 15.4942L14.0001 3.86193L2.36963 15.4942C2.20533 15.6585 1.98249 15.7508 1.75013 15.7508C1.51777 15.7508 1.29493 15.6585 1.13063 15.4942C0.966327 15.3299 0.874023 15.107 0.874023 14.8747C0.874023 14.6423 0.966327 14.4195 1.13063 14.2552L12.7629 2.62468Z" fill="#F9F9F9"/>
</svg>
