<svg width="32" height="32" viewBox="0 0 32 32" fill="none" xmlns="http://www.w3.org/2000/svg">
<path d="M6 28C6 28 4 28 4 26C4 24 6 18 16 18C26 18 28 24 28 26C28 28 26 28 26 28H6ZM16 16C17.5913 16 19.1174 15.3679 20.2426 14.2426C21.3679 13.1174 22 11.5913 22 10C22 8.4087 21.3679 6.88258 20.2426 5.75736C19.1174 4.63214 17.5913 4 16 4C14.4087 4 12.8826 4.63214 11.7574 5.75736C10.6321 6.88258 10 8.4087 10 10C10 11.5913 10.6321 13.1174 11.7574 14.2426C12.8826 15.3679 14.4087 16 16 16Z" fill="#F8F8F8"/>
</svg>
