<svg width="26" height="26" viewBox="0 0 26 26" fill="none" xmlns="http://www.w3.org/2000/svg">
<g clip-path="url(#clip0_168_249)">
<path d="M8.09235 1.625C7.97057 1.62517 7.85039 1.65272 7.74069 1.7056C7.631 1.75848 7.53459 1.83534 7.4586 1.9305L2.50235 8.125H9.74985C9.96534 8.125 10.172 8.2106 10.3244 8.36298C10.4767 8.51535 10.5624 8.72201 10.5624 8.9375C10.5624 9.58397 10.8192 10.204 11.2763 10.6611C11.7334 11.1182 12.3534 11.375 12.9999 11.375C13.6463 11.375 14.2663 11.1182 14.7234 10.6611C15.1805 10.204 15.4374 9.58397 15.4374 8.9375C15.4374 8.72201 15.523 8.51535 15.6753 8.36298C15.8277 8.2106 16.0344 8.125 16.2499 8.125H23.4974L18.5411 1.9305C18.4651 1.83534 18.3687 1.75848 18.259 1.7056C18.1493 1.65272 18.0291 1.62517 17.9074 1.625H8.09235ZM6.1911 0.914875C6.41923 0.629693 6.70852 0.399417 7.03761 0.241063C7.36669 0.0827093 7.72715 0.000325698 8.09235 0L17.9074 0C18.2726 0.000325698 18.633 0.0827093 18.9621 0.241063C19.2912 0.399417 19.5805 0.629693 19.8086 0.914875L25.8211 8.4305C25.8889 8.51517 25.9391 8.61257 25.9687 8.71695C25.9983 8.82133 26.0067 8.93058 25.9934 9.03825L25.3596 14.1147C25.2859 14.7044 24.9993 15.2469 24.5537 15.6401C24.1082 16.0333 23.5343 16.2502 22.94 16.25H3.05973C2.46544 16.2502 1.89155 16.0333 1.44596 15.6401C1.00037 15.2469 0.71379 14.7044 0.6401 14.1147L0.00634944 9.03825C-0.00696947 8.93058 0.00141013 8.82133 0.0309939 8.71695C0.0605777 8.61257 0.110766 8.51517 0.178599 8.4305L6.1911 0.914875ZM0.202974 18.1513C0.279114 18.0646 0.372837 17.9951 0.477907 17.9475C0.582978 17.8999 0.696987 17.8751 0.81235 17.875H9.74985C9.96534 17.875 10.172 17.9606 10.3244 18.113C10.4767 18.2653 10.5624 18.472 10.5624 18.6875C10.5624 19.334 10.8192 19.954 11.2763 20.4111C11.7334 20.8682 12.3534 21.125 12.9999 21.125C13.6463 21.125 14.2663 20.8682 14.7234 20.4111C15.1805 19.954 15.4374 19.334 15.4374 18.6875C15.4374 18.472 15.523 18.2653 15.6753 18.113C15.8277 17.9606 16.0344 17.875 16.2499 17.875H25.1874C25.3025 17.875 25.4164 17.8996 25.5214 17.9469C25.6264 17.9943 25.7201 18.0635 25.7963 18.1499C25.8725 18.2362 25.9295 18.3378 25.9635 18.4479C25.9975 18.5579 26.0076 18.674 25.9934 18.7882L25.3596 23.8647C25.2859 24.4544 24.9993 24.9969 24.5537 25.3901C24.1082 25.7833 23.5343 26.0002 22.94 26H3.05973C2.46544 26.0002 1.89155 25.7833 1.44596 25.3901C1.00037 24.9969 0.71379 24.4544 0.6401 23.8647L0.00634944 18.7882C-0.00802485 18.6739 0.00207279 18.5579 0.0359724 18.4478C0.0698719 18.3377 0.126798 18.236 0.202974 18.1496V18.1513Z" fill="#F8F8F8"/>
</g>
<defs>
<clipPath id="clip0_168_249">
<rect width="26" height="26" fill="white"/>
</clipPath>
</defs>
</svg>
