<svg width="58" height="61" viewBox="0 0 58 61" fill="none" xmlns="http://www.w3.org/2000/svg">
<path fill-rule="evenodd" clip-rule="evenodd" d="M53.0719 59.0287C46.4708 55.0911 39.7543 48.4523 34.1696 39.7398C25.6912 26.5129 22.0044 11.9125 23.6165 1.34155C27.4237 3.32664 30.0229 7.31025 30.0229 11.901V23.1081C34.7666 31.5136 40.4927 39.0835 47.0081 45.5904H50.6806C54.5084 45.5904 57.6115 48.6935 57.6115 52.5213C57.6115 55.5088 55.7215 58.0547 53.0719 59.0287Z" fill="#A3CD4D" fill-opacity="0.5"/>
<mask id="path-2-inside-1_43_661" fill="white">
<path fill-rule="evenodd" clip-rule="evenodd" d="M18.122 0C11.5493 0 6.22102 5.32826 6.22102 11.901V37.5229C4.95457 41.2477 3.53575 44.647 1.98819 47.6626C0.758543 48.9134 0 50.6288 0 52.5213C0 56.3492 3.10309 59.4523 6.93096 59.4523H50.6806C54.5084 59.4523 57.6115 56.3492 57.6115 52.5213C57.6115 48.6935 54.5084 45.5904 50.6806 45.5904H47.0081C40.4927 39.0835 34.7667 31.5136 30.023 23.1081V11.901C30.023 5.32825 24.6947 0 18.122 0Z"/>
</mask>
<path d="M6.22102 37.5229L8.58794 38.3277L8.72102 37.9363V37.5229H6.22102ZM1.98819 47.6626L3.77095 49.4153L4.0383 49.1433L4.21241 48.804L1.98819 47.6626ZM47.0081 45.5904L45.2415 47.3593L45.9735 48.0904H47.0081V45.5904ZM30.023 23.1081H27.523V23.7649L27.8458 24.3368L30.023 23.1081ZM8.72102 11.901C8.72102 6.70897 12.93 2.5 18.122 2.5V-2.5C10.1686 -2.5 3.72102 3.94755 3.72102 11.901H8.72102ZM8.72102 37.5229V11.901H3.72102V37.5229H8.72102ZM4.21241 48.804C5.82376 45.6641 7.28834 42.15 8.58794 38.3277L3.85409 36.7182C2.6208 40.3454 1.24774 43.6299 -0.236032 46.5212L4.21241 48.804ZM2.5 52.5213C2.5 51.3106 2.9823 50.2175 3.77095 49.4153L0.20542 45.91C-1.46522 47.6093 -2.5 49.947 -2.5 52.5213H2.5ZM6.93096 56.9523C4.48381 56.9523 2.5 54.9685 2.5 52.5213H-2.5C-2.5 57.7299 1.72238 61.9523 6.93096 61.9523V56.9523ZM50.6806 56.9523H6.93096V61.9523H50.6806V56.9523ZM55.1115 52.5213C55.1115 54.9685 53.1277 56.9523 50.6806 56.9523V61.9523C55.8891 61.9523 60.1115 57.7299 60.1115 52.5213H55.1115ZM50.6806 48.0904C53.1277 48.0904 55.1115 50.0742 55.1115 52.5213H60.1115C60.1115 47.3128 55.8892 43.0904 50.6806 43.0904V48.0904ZM47.0081 48.0904H50.6806V43.0904H47.0081V48.0904ZM27.8458 24.3368C32.6965 32.932 38.5588 40.6853 45.2415 47.3593L48.7747 43.8215C42.4266 37.4817 36.8368 30.0952 32.2002 21.8794L27.8458 24.3368ZM27.523 11.901V23.1081H32.523V11.901H27.523ZM18.122 2.5C23.314 2.5 27.523 6.70896 27.523 11.901H32.523C32.523 3.94753 26.0754 -2.5 18.122 -2.5V2.5Z" fill="black" mask="url(#path-2-inside-1_43_661)"/>
<path d="M29.8596 12.8026C27.4624 19.9515 19.399 34.8409 6.32323 37.2074" stroke="black" stroke-width="2.5"/>
<path d="M6.32323 12.8026C7.82597 17.256 12.8806 26.5314 21.0774 28.0056" stroke="black" stroke-width="2.5"/>
<path d="M34.0751 30.006C30.6403 36.9205 19.0867 51.3218 0.351288 53.6107" stroke="black" stroke-width="2.5"/>
<path d="M42.1548 40.8082C39.3282 46.1991 29.8206 57.4273 14.4029 59.2119" stroke="black" stroke-width="2.5"/>
</svg>
