<svg width="71" height="71" viewBox="0 0 71 71" fill="none" xmlns="http://www.w3.org/2000/svg">
<g filter="url(#filter0_d_43_699)">
<path d="M20.7513 37.3956C19.4637 37.3975 18.192 37.6804 17.025 38.2245C15.858 38.7687 14.8238 39.5609 13.9946 40.5459C13.1654 41.531 12.5611 42.6851 12.224 43.9278C11.8869 45.1705 11.825 46.4718 12.0427 47.7409C12.2603 49.0099 12.7523 50.2162 13.4843 51.2755C14.2163 52.3348 15.1707 53.2216 16.2808 53.874C17.3908 54.5264 18.6299 54.9287 19.9115 55.0528C21.1932 55.177 22.4864 55.0199 23.7011 54.5926" stroke="black" stroke-width="2.5" stroke-linecap="round" stroke-linejoin="round"/>
<path d="M12.6808 42.13C10.9156 41.2801 9.38977 40.0041 8.24104 38.4171C7.09231 36.8301 6.35685 34.982 6.10103 33.0396C5.8452 31.0972 6.07707 29.1217 6.77571 27.2914C7.47435 25.461 8.61777 23.8334 10.1028 22.5555M10.1913 22.3166C9.22387 20.869 8.79986 19.1258 8.99431 17.3956C9.18876 15.6655 9.98911 14.0599 11.2537 12.8631C12.5182 11.6664 14.1655 10.9556 15.9037 10.8568C17.642 10.7579 19.3592 11.2772 20.7513 12.3229M21.4534 12.5146C20.9828 11.5148 20.7429 10.422 20.7515 9.31699C20.7601 8.21199 21.017 7.12306 21.503 6.13067C21.9891 5.13828 22.6919 4.26781 23.5597 3.58361C24.4274 2.8994 25.4378 2.41896 26.5162 2.17778C27.5946 1.9366 28.7134 1.94086 29.7899 2.19025C30.8664 2.43963 31.8731 2.92775 32.7356 3.61854C33.5981 4.30934 34.2943 5.18513 34.7728 6.18119C35.2513 7.17725 35.4998 8.26811 35.5 9.37314V55.0941C35.5 56.6587 34.8785 58.1593 33.7721 59.2656C32.6657 60.372 31.1652 60.9936 29.6005 60.9936C28.0359 60.9936 26.5353 60.372 25.429 59.2656C24.3226 58.1593 23.7011 56.6587 23.7011 55.0941M35.5 16.7475C35.5 19.0944 36.4323 21.3453 38.0919 23.0048C39.7514 24.6644 42.0023 25.5967 44.3492 25.5967M50.2487 37.3957C51.5363 37.3976 52.808 37.6805 53.975 38.2246C55.142 38.7687 56.1762 39.5609 57.0054 40.546C57.8346 41.531 58.4389 42.6852 58.776 43.9278C59.1131 45.1705 59.175 46.4718 58.9574 47.7409C58.7397 49.01 58.2477 50.2162 57.5157 51.2755C56.7837 52.3348 55.8293 53.2216 54.7193 53.8741C53.6092 54.5265 52.3701 54.9288 51.0885 55.0529C49.8069 55.177 48.5136 55.0199 47.299 54.5926" stroke="black" stroke-width="2.5" stroke-linecap="round" stroke-linejoin="round"/>
<path d="M58.3192 42.13C60.0844 41.2801 61.6102 40.0041 62.759 38.4171C63.9077 36.8301 64.6432 34.982 64.899 33.0396C65.1548 31.0972 64.9229 29.1217 64.2243 27.2914C63.5257 25.461 62.3822 23.8334 60.8972 22.5555M60.8088 22.3166C61.7761 20.869 62.2001 19.1258 62.0057 17.3956C61.8112 15.6655 61.0109 14.0599 59.7463 12.8631C58.4818 11.6664 56.8345 10.9556 55.0963 10.8568C53.358 10.7579 51.6408 11.2772 50.2487 12.3229M35.5 9.37314C35.5002 8.26811 35.7487 7.17725 36.2272 6.18119C36.7057 5.18513 37.4019 4.30934 38.2644 3.61854C39.1269 2.92775 40.1336 2.43963 41.2101 2.19025C42.2866 1.94086 43.4054 1.9366 44.4838 2.17778C45.5622 2.41896 46.5726 2.8994 47.4403 3.58361C48.3081 4.26781 49.0109 5.13828 49.497 6.13067C49.9831 7.12306 50.2399 8.21199 50.2485 9.31699C50.2571 10.422 50.0172 11.5148 49.5466 12.5146M47.299 55.0941C47.299 56.6587 46.6774 58.1593 45.571 59.2656C44.4647 60.372 42.9641 60.9936 41.3995 60.9936C39.8348 60.9936 38.3343 60.372 37.2279 59.2656C36.1216 58.1593 35.5 56.6587 35.5 55.0941" stroke="black" stroke-width="2.5" stroke-linecap="round" stroke-linejoin="round"/>
</g>
<defs>
<filter id="filter0_d_43_699" x="0.75" y="0.75" width="69.5" height="69.4936" filterUnits="userSpaceOnUse" color-interpolation-filters="sRGB">
<feFlood flood-opacity="0" result="BackgroundImageFix"/>
<feColorMatrix in="SourceAlpha" type="matrix" values="0 0 0 0 0 0 0 0 0 0 0 0 0 0 0 0 0 0 127 0" result="hardAlpha"/>
<feOffset dy="4"/>
<feGaussianBlur stdDeviation="2"/>
<feComposite in2="hardAlpha" operator="out"/>
<feColorMatrix type="matrix" values="0 0 0 0 0 0 0 0 0 0.564706 0 0 0 0 0.854902 0 0 0 1 0"/>
<feBlend mode="normal" in2="BackgroundImageFix" result="effect1_dropShadow_43_699"/>
<feBlend mode="normal" in="SourceGraphic" in2="effect1_dropShadow_43_699" result="shape"/>
</filter>
</defs>
</svg>
