<svg width="80" height="80" viewBox="0 0 80 80" fill="none" xmlns="http://www.w3.org/2000/svg">
<path fill-rule="evenodd" clip-rule="evenodd" d="M35.9149 7.77777C49.583 14.7596 58.3109 25.3901 58.3109 37.2972C58.3109 43.8712 55.6504 50.0562 50.9668 55.4527C51.0792 55.5795 51.1962 55.7039 51.3178 55.8255C54.1722 58.6799 58.5046 58.9752 60.9945 56.4853C63.4845 53.9953 63.1891 49.6629 60.3348 46.8086C60.1471 46.6209 59.953 46.4443 59.7535 46.2788C60.4571 44.9428 61.0297 43.527 61.4541 42.0486C61.6881 42.0683 61.9254 42.0784 62.1653 42.0784C66.2019 42.0784 69.4743 39.2238 69.4743 35.7024C69.4743 32.1811 66.2019 29.3265 62.1653 29.3265C61.8948 29.3265 61.6277 29.3393 61.3648 29.3643C60.8956 27.8134 60.2628 26.3336 59.4863 24.945C59.7025 24.7684 59.9124 24.5788 60.1149 24.3763C62.9692 21.522 63.2646 17.1896 60.7746 14.6996C58.2847 12.2097 53.9523 12.5051 51.098 15.3594C50.865 15.5924 50.6491 15.8352 50.4504 16.086C49.1654 15.4007 47.8058 14.837 46.3869 14.4102C46.4342 14.051 46.4588 13.6833 46.4588 13.309C46.4588 9.27234 43.6042 6 40.0828 6C38.4894 6 37.0325 6.67005 35.9149 7.77777ZM46.2188 60.0892C43.9952 61.9497 41.5062 63.6786 38.7869 65.2538C39.2054 65.3529 39.6388 65.4049 40.0828 65.4049C43.0014 65.4049 45.4619 63.157 46.2188 60.0892Z" fill="#CBE0A0"/>
<g filter="url(#filter0_d_43_631)">
<mask id="path-2-inside-1_43_631" fill="white">
<path fill-rule="evenodd" clip-rule="evenodd" d="M46.3894 13.309C46.3894 13.6833 46.3648 14.051 46.3175 14.4102C47.7364 14.837 49.096 15.4007 50.381 16.086C50.5797 15.8352 50.7956 15.5924 51.0286 15.3594C53.8829 12.5051 58.2153 12.2097 60.7053 14.6996C63.1952 17.1896 62.8998 21.522 60.0455 24.3763C59.843 24.5788 59.6331 24.7684 59.417 24.945C60.1934 26.3336 60.8262 27.8134 61.2954 29.3643C61.5583 29.3393 61.8254 29.3265 62.0959 29.3265C66.1325 29.3265 69.4049 32.1811 69.4049 35.7024C69.4049 39.2238 66.1325 42.0784 62.0959 42.0784C61.856 42.0784 61.6187 42.0683 61.3847 42.0486C60.9603 43.527 60.3877 44.9428 59.6841 46.2788C59.8836 46.4443 60.0777 46.6209 60.2654 46.8086C63.1197 49.6629 63.4151 53.9953 60.9251 56.4853C58.4352 58.9752 54.1028 58.6799 51.2485 55.8255C51.104 55.681 50.9661 55.5328 50.8347 55.3812C49.4277 56.174 47.9263 56.8191 46.3516 57.2954C46.3766 57.5583 46.3894 57.8254 46.3894 58.0959C46.3894 62.1325 43.5348 65.4049 40.0135 65.4049C36.4921 65.4049 33.6376 62.1325 33.6376 58.0959C33.6376 57.856 33.6476 57.6188 33.6673 57.3848C32.006 56.9079 30.4238 56.2439 28.945 55.417C28.7684 55.6331 28.5788 55.843 28.3763 56.0455C25.522 58.8998 21.1896 59.1952 18.6997 56.7052C16.2097 54.2153 16.5051 49.8829 19.3594 47.0286C19.5924 46.7956 19.8351 46.5797 20.086 46.381C19.3525 45.0058 18.7583 43.545 18.3223 42.0176C17.9911 42.0577 17.6528 42.0784 17.309 42.0784C13.2723 42.0784 10 39.2238 10 35.7024C10 32.1811 13.2723 29.3265 17.309 29.3265C17.6833 29.3265 18.051 29.3511 18.4102 29.3984C18.8918 27.7972 19.5477 26.2715 20.3561 24.8434C20.0874 24.6339 19.8278 24.4049 19.5794 24.1564C16.725 21.3021 16.4296 16.9697 18.9196 14.4797C21.4095 11.9898 25.7419 12.2852 28.5963 15.1395C28.8877 15.431 29.1525 15.7378 29.3903 16.0565C30.7494 15.3366 32.1914 14.7525 33.6983 14.3223C33.6583 13.9911 33.6376 13.6528 33.6376 13.309C33.6376 9.27234 36.4921 6 40.0135 6C43.5348 6 46.3894 9.27234 46.3894 13.309Z"/>
</mask>
<path d="M46.3175 14.4102L43.8389 14.0835L43.561 16.1918L45.5975 16.8043L46.3175 14.4102ZM50.381 16.086L49.2045 18.2919L51.0451 19.2735L52.3405 17.6385L50.381 16.086ZM51.0286 15.3594L49.2608 13.5916L49.2608 13.5916L51.0286 15.3594ZM60.7053 14.6996L62.473 12.9319L62.473 12.9319L60.7053 14.6996ZM60.0455 24.3763L58.2777 22.6086L58.2777 22.6086L60.0455 24.3763ZM59.417 24.945L57.835 23.0092L56.2119 24.3355L57.2349 26.1651L59.417 24.945ZM61.2954 29.3643L58.9025 30.0882L59.495 32.0467L61.5319 31.8531L61.2954 29.3643ZM61.3847 42.0486L61.5946 39.5574L59.5483 39.385L58.9818 41.3588L61.3847 42.0486ZM59.6841 46.2788L57.4721 45.1138L56.527 46.9082L58.088 48.203L59.6841 46.2788ZM60.2654 46.8086L58.4976 48.5764L58.4976 48.5764L60.2654 46.8086ZM50.8347 55.3812L52.7244 53.7443L51.387 52.2004L49.6075 53.2031L50.8347 55.3812ZM46.3516 57.2954L45.6277 54.9025L43.6692 55.495L43.8628 57.5319L46.3516 57.2954ZM33.6673 57.3848L36.1585 57.5946L36.3309 55.5484L34.3571 54.9818L33.6673 57.3848ZM28.945 55.417L30.1651 53.2349L28.3355 52.2119L27.0091 53.8351L28.945 55.417ZM28.3763 56.0455L30.1441 57.8132L28.3763 56.0455ZM18.6997 56.7052L16.9319 58.473H16.9319L18.6997 56.7052ZM19.3594 47.0286L21.1272 48.7963L19.3594 47.0286ZM20.086 46.381L21.6385 48.3405L23.2735 47.0451L22.2918 45.2045L20.086 46.381ZM18.3223 42.0176L20.7262 41.3313L20.1404 39.2794L18.022 39.5357L18.3223 42.0176ZM18.4102 29.3984L18.0835 31.877L20.1918 32.1549L20.8042 30.1185L18.4102 29.3984ZM20.3561 24.8434L22.5317 26.0749L23.5939 24.1982L21.8935 22.8721L20.3561 24.8434ZM19.5794 24.1564L17.8116 25.9242L19.5794 24.1564ZM18.9196 14.4797L17.1518 12.712L18.9196 14.4797ZM28.5963 15.1395L30.364 13.3718L30.364 13.3718L28.5963 15.1395ZM29.3903 16.0565L27.3867 17.5517L28.6678 19.2684L30.5606 18.2657L29.3903 16.0565ZM33.6983 14.3223L34.3846 16.7263L36.4365 16.1405L36.1802 14.022L33.6983 14.3223ZM48.7961 14.737C48.8577 14.2695 48.8894 13.7926 48.8894 13.309H43.8894C43.8894 13.574 43.872 13.8326 43.8389 14.0835L48.7961 14.737ZM51.5575 13.8801C50.1286 13.1181 48.6162 12.491 47.0375 12.0162L45.5975 16.8043C46.8566 17.183 48.0634 17.6833 49.2045 18.2919L51.5575 13.8801ZM52.3405 17.6385C52.4796 17.463 52.6314 17.2921 52.7963 17.1272L49.2608 13.5916C48.9598 13.8926 48.6799 14.2073 48.4215 14.5335L52.3405 17.6385ZM52.7963 17.1272C54.9088 15.0147 57.6429 15.1728 58.9375 16.4674L62.473 12.9319C58.7877 9.24658 52.857 9.99547 49.2608 13.5916L52.7963 17.1272ZM58.9375 16.4674C60.2321 17.762 60.3902 20.4961 58.2777 22.6086L61.8133 26.1441C65.4094 22.5479 66.1583 16.6172 62.473 12.9319L58.9375 16.4674ZM58.2777 22.6086C58.1344 22.7519 57.9865 22.8854 57.835 23.0092L60.9989 26.8809C61.2797 26.6514 61.5516 26.4057 61.8133 26.1441L58.2777 22.6086ZM63.6883 28.6405C63.1663 26.9149 62.4623 25.2689 61.599 23.7249L57.2349 26.1651C57.9245 27.3984 58.4862 28.712 58.9025 30.0882L63.6883 28.6405ZM62.0959 26.8265C61.7464 26.8265 61.4004 26.8431 61.0589 26.8755L61.5319 31.8531C61.7162 31.8356 61.9044 31.8265 62.0959 31.8265V26.8265ZM71.9049 35.7024C71.9049 30.4907 67.1817 26.8265 62.0959 26.8265V31.8265C65.0834 31.8265 66.9049 33.8716 66.9049 35.7024H71.9049ZM62.0959 44.5784C67.1817 44.5784 71.9049 40.9142 71.9049 35.7024H66.9049C66.9049 37.5333 65.0834 39.5784 62.0959 39.5784V44.5784ZM61.1749 44.5397C61.4787 44.5653 61.7859 44.5784 62.0959 44.5784V39.5784C61.926 39.5784 61.7588 39.5712 61.5946 39.5574L61.1749 44.5397ZM61.896 47.4438C62.6785 45.9582 63.3155 44.3833 63.7877 42.7383L58.9818 41.3588C58.6052 42.6707 58.097 43.9274 57.4721 45.1138L61.896 47.4438ZM62.0331 45.0408C61.7906 44.7983 61.5392 44.5695 61.2801 44.3546L58.088 48.203C58.228 48.3191 58.3647 48.4435 58.4976 48.5764L62.0331 45.0408ZM62.6929 58.2531C66.3782 54.5678 65.6293 48.637 62.0331 45.0408L58.4976 48.5764C60.6101 50.6889 60.452 53.4229 59.1574 54.7175L62.6929 58.2531ZM49.4807 57.5933C53.0769 61.1895 59.0076 61.9383 62.6929 58.2531L59.1574 54.7175C57.8628 56.0121 55.1287 56.1702 53.0162 54.0578L49.4807 57.5933ZM48.9451 57.018C49.1154 57.2147 49.294 57.4066 49.4807 57.5933L53.0162 54.0578C52.9139 53.9555 52.8167 53.8509 52.7244 53.7443L48.9451 57.018ZM47.0755 59.6883C48.8275 59.1583 50.4975 58.4407 52.062 57.5592L49.6075 53.2031C48.3578 53.9072 47.025 54.4798 45.6277 54.9025L47.0755 59.6883ZM48.8894 58.0959C48.8894 57.7464 48.8728 57.4004 48.8404 57.0589L43.8628 57.5319C43.8803 57.7163 43.8894 57.9044 43.8894 58.0959H48.8894ZM40.0135 67.9049C45.2253 67.9049 48.8894 63.1817 48.8894 58.0959H43.8894C43.8894 61.0834 41.8443 62.9049 40.0135 62.9049V67.9049ZM31.1376 58.0959C31.1376 63.1817 34.8017 67.9049 40.0135 67.9049V62.9049C38.1826 62.9049 36.1376 61.0834 36.1376 58.0959H31.1376ZM31.1762 57.1749C31.1506 57.4787 31.1376 57.7859 31.1376 58.0959H36.1376C36.1376 57.926 36.1447 57.7588 36.1585 57.5946L31.1762 57.1749ZM27.7249 57.599C29.3691 58.5184 31.1291 59.2571 32.9776 59.7877L34.3571 54.9818C32.8829 54.5586 31.4784 53.9693 30.1651 53.2349L27.7249 57.599ZM30.1441 57.8132C30.4057 57.5516 30.6514 57.2797 30.8808 56.9989L27.0091 53.8351C26.8854 53.9865 26.7519 54.1344 26.6086 54.2777L30.1441 57.8132ZM16.9319 58.473C20.6172 62.1583 26.5479 61.4094 30.1441 57.8132L26.6086 54.2777C24.4961 56.3902 21.762 56.2321 20.4674 54.9375L16.9319 58.473ZM17.5917 45.2608C13.9955 48.857 13.2466 54.7877 16.9319 58.473L20.4674 54.9375C19.1728 53.6429 19.0147 50.9088 21.1272 48.7963L17.5917 45.2608ZM18.5334 44.4215C18.2073 44.6799 17.8926 44.9598 17.5917 45.2608L21.1272 48.7963C21.2921 48.6314 21.463 48.4795 21.6385 48.3405L18.5334 44.4215ZM15.9183 42.7039C16.4035 44.4033 17.0645 46.0282 17.8801 47.5575L22.2918 45.2045C21.6405 43.9833 21.1132 42.6867 20.7262 41.3313L15.9183 42.7039ZM17.309 44.5784C17.7532 44.5784 18.1918 44.5516 18.6226 44.4995L18.022 39.5357C17.7904 39.5637 17.5524 39.5784 17.309 39.5784V44.5784ZM7.5 35.7024C7.5 40.9142 12.2232 44.5784 17.309 44.5784V39.5784C14.3215 39.5784 12.5 37.5333 12.5 35.7024H7.5ZM17.309 26.8265C12.2232 26.8265 7.5 30.4907 7.5 35.7024H12.5C12.5 33.8716 14.3215 31.8265 17.309 31.8265V26.8265ZM18.7369 26.9199C18.2695 26.8582 17.7926 26.8265 17.309 26.8265V31.8265C17.574 31.8265 17.8325 31.8439 18.0835 31.877L18.7369 26.9199ZM18.1804 23.612C17.2817 25.1998 16.5519 26.8968 16.0161 28.6784L20.8042 30.1185C21.2316 28.6976 21.8138 27.3432 22.5317 26.0749L18.1804 23.612ZM17.8116 25.9242C18.1326 26.2452 18.4691 26.5422 18.8186 26.8148L21.8935 22.8721C21.7057 22.7256 21.523 22.5645 21.3471 22.3887L17.8116 25.9242ZM17.1518 12.712C13.4665 16.3973 14.2154 22.328 17.8116 25.9242L21.3471 22.3887C19.2346 20.2762 19.3927 17.5421 20.6874 16.2475L17.1518 12.712ZM30.364 13.3718C26.7679 9.77557 20.8371 9.02669 17.1518 12.712L20.6874 16.2475C21.982 14.9529 24.716 14.7948 26.8285 16.9073L30.364 13.3718ZM31.3939 14.5614C31.0842 14.1463 30.7406 13.7483 30.364 13.3718L26.8285 16.9073C27.0348 17.1136 27.2208 17.3293 27.3867 17.5517L31.3939 14.5614ZM33.0121 11.9183C31.3354 12.397 29.7313 13.0468 28.22 13.8473L30.5606 18.2657C31.7674 17.6264 33.0474 17.108 34.3846 16.7263L33.0121 11.9183ZM31.1376 13.309C31.1376 13.7532 31.1643 14.1918 31.2164 14.6226L36.1802 14.022C36.1522 13.7904 36.1376 13.5524 36.1376 13.309H31.1376ZM40.0135 3.5C34.8017 3.5 31.1376 8.22322 31.1376 13.309H36.1376C36.1376 10.3215 38.1826 8.5 40.0135 8.5V3.5ZM48.8894 13.309C48.8894 8.22322 45.2253 3.5 40.0135 3.5V8.5C41.8443 8.5 43.8894 10.3215 43.8894 13.309H48.8894Z" fill="black" mask="url(#path-2-inside-1_43_631)"/>
<circle cx="47.6763" cy="26.5325" r="4.53101" stroke="black" stroke-width="2.5"/>
<circle cx="25.9476" cy="37.4966" r="2.79083" fill="black"/>
<circle cx="44.6861" cy="46.2678" r="3.93298" stroke="black" stroke-width="2.5"/>
</g>
<defs>
<filter id="filter0_d_43_631" x="0" y="0" width="79.4049" height="79.4049" filterUnits="userSpaceOnUse" color-interpolation-filters="sRGB">
<feFlood flood-opacity="0" result="BackgroundImageFix"/>
<feColorMatrix in="SourceAlpha" type="matrix" values="0 0 0 0 0 0 0 0 0 0 0 0 0 0 0 0 0 0 127 0" result="hardAlpha"/>
<feOffset dy="4"/>
<feGaussianBlur stdDeviation="5"/>
<feComposite in2="hardAlpha" operator="out"/>
<feColorMatrix type="matrix" values="0 0 0 0 0.639216 0 0 0 0 0.803922 0 0 0 0 0.301961 0 0 0 1 0"/>
<feBlend mode="normal" in2="BackgroundImageFix" result="effect1_dropShadow_43_631"/>
<feBlend mode="normal" in="SourceGraphic" in2="effect1_dropShadow_43_631" result="shape"/>
</filter>
</defs>
</svg>
