<svg width="71" height="85" viewBox="0 0 71 85" fill="none" xmlns="http://www.w3.org/2000/svg">
<g filter="url(#filter0_d_43_703)">
<mask id="path-1-inside-1_43_703" fill="white">
<path fill-rule="evenodd" clip-rule="evenodd" d="M59.4595 42.5431C61.691 38.7887 62.9651 34.4484 62.9651 29.8242C62.9651 15.5619 50.8451 4 35.8943 4C20.9434 4 8.8234 15.5619 8.8234 29.8242C8.8234 30.8094 8.88124 31.7818 8.99386 32.7384C6.91044 35.6489 8.27934 39.7208 11.4565 40.9477C11.4575 40.9497 11.4585 40.9517 11.4595 40.9538C11.3792 41.9863 11.4096 43.0435 11.561 44.1114C11.665 44.8453 11.8226 45.5583 12.0292 46.2473V72.3895L12.0292 46.2473C13.237 50.2752 16.1199 53.4771 19.7775 55.1764C20.4694 59.4487 20.8629 64.3552 20.8629 69.5734C20.8629 70.5231 20.8499 71.4624 20.8244 72.3895L32.726 72.3895H38.7626H59.4595V42.5431ZM59.4595 42.5431L59.4594 72.3895H50.6644C50.6389 71.4624 50.6259 70.5231 50.6259 69.5734C50.6259 62.1004 51.4329 55.2666 52.7676 50.0194C55.4673 47.9641 57.7457 45.4264 59.4595 42.5431Z"/>
</mask>
<path d="M59.4595 42.5431L57.3104 41.2658L59.4595 42.5431ZM8.99386 32.7384L11.0267 34.1936L11.5898 33.4069L11.4767 32.4461L8.99386 32.7384ZM11.4565 40.9477L13.6914 39.8274L13.2584 38.9636L12.3571 38.6156L11.4565 40.9477ZM11.4595 40.9538L13.952 41.1476L14.0059 40.4544L13.6942 39.833L11.4595 40.9538ZM11.561 44.1114L9.08574 44.4624H9.08574L11.561 44.1114ZM12.0292 46.2473H14.5292V45.8805L14.4238 45.5292L12.0292 46.2473ZM12.0292 46.2473L14.4239 45.5293L9.52921 46.2473L12.0292 46.2473ZM19.7775 55.1764L22.2454 54.7767L22.0334 53.4678L20.8308 52.9091L19.7775 55.1764ZM20.8244 72.3895L18.3253 72.3208L18.2547 74.8895L20.8244 74.8895L20.8244 72.3895ZM32.726 72.3895L32.726 74.8895H32.726V72.3895ZM59.4595 72.3895V74.8895H61.9595V72.3895H59.4595ZM59.4594 72.3895V74.8895H61.9594V72.3895H59.4594ZM50.6644 72.3895L48.1653 72.4582L48.2322 74.8895H50.6644V72.3895ZM52.7676 50.0194L51.2532 48.0303L50.5596 48.5583L50.3447 49.4031L52.7676 50.0194ZM60.4651 29.8242C60.4651 33.9815 59.3212 37.8827 57.3104 41.2658L61.6085 43.8205C64.0608 39.6947 65.4651 34.9152 65.4651 29.8242H60.4651ZM35.8943 6.5C49.5767 6.5 60.4651 17.0524 60.4651 29.8242H65.4651C65.4651 14.0714 52.1134 1.5 35.8943 1.5V6.5ZM11.3234 29.8242C11.3234 17.0524 22.2118 6.5 35.8943 6.5V1.5C19.6751 1.5 6.3234 14.0714 6.3234 29.8242H11.3234ZM11.4767 32.4461C11.3755 31.5863 11.3234 30.7115 11.3234 29.8242H6.3234C6.3234 30.9074 6.387 31.9774 6.51101 33.0307L11.4767 32.4461ZM12.3571 38.6156C10.6439 37.954 9.93222 35.7226 11.0267 34.1936L6.96101 31.2832C3.88866 35.5753 5.9148 41.4877 10.5559 43.2799L12.3571 38.6156ZM13.6942 39.833C13.6933 39.8312 13.6924 39.8294 13.6914 39.8274L9.22162 42.0681C9.22261 42.0701 9.22372 42.0723 9.22485 42.0746L13.6942 39.833ZM14.0362 43.7604C13.9106 42.8741 13.8857 41.9997 13.952 41.1476L8.96706 40.7599C8.87271 41.9729 8.90857 43.2128 9.08574 44.4624L14.0362 43.7604ZM14.4238 45.5292C14.2532 44.9601 14.1226 44.3697 14.0362 43.7604L9.08574 44.4624C9.20747 45.3208 9.39204 46.1566 9.63452 46.9653L14.4238 45.5292ZM14.5292 72.3895V46.2473H9.52918V72.3895H14.5292ZM9.52921 46.2473L9.52918 72.3895H14.5292L14.5292 46.2473L9.52921 46.2473ZM20.8308 52.9091C17.8012 51.5016 15.4202 48.8519 14.4239 45.5293L9.63454 46.9654C11.0538 51.6984 14.4387 55.4527 18.7242 57.4436L20.8308 52.9091ZM23.3629 69.5734C23.3629 64.2344 22.9606 59.1935 22.2454 54.7767L17.3097 55.576C17.9782 59.7039 18.3629 64.476 18.3629 69.5734H23.3629ZM23.3234 72.4582C23.3495 71.5082 23.3629 70.5459 23.3629 69.5734H18.3629C18.3629 70.5002 18.3502 71.4167 18.3253 72.3208L23.3234 72.4582ZM32.7261 69.8895L20.8244 69.8895L20.8244 74.8895L32.726 74.8895L32.7261 69.8895ZM38.7626 69.8895H32.726V74.8895H38.7626V69.8895ZM59.4595 69.8895H38.7626V74.8895H59.4595V69.8895ZM56.9595 42.5431V72.3895H61.9595V42.5431H56.9595ZM61.9594 72.3895L61.9595 42.5431H56.9595L56.9594 72.3895H61.9594ZM50.6644 74.8895H59.4594V69.8895H50.6644V74.8895ZM48.1259 69.5734C48.1259 70.5459 48.1392 71.5082 48.1653 72.4582L53.1634 72.3208C53.1386 71.4166 53.1259 70.5002 53.1259 69.5734H48.1259ZM50.3447 49.4031C48.9484 54.8926 48.1259 61.9394 48.1259 69.5734H53.1259C53.1259 62.2614 53.9174 55.6406 55.1904 50.6357L50.3447 49.4031ZM57.3104 41.2658C55.7645 43.8666 53.7039 46.1645 51.2532 48.0303L54.282 52.0086C57.2307 49.7636 59.7269 46.9862 61.6085 43.8205L57.3104 41.2658Z" fill="black" mask="url(#path-1-inside-1_43_703)"/>
</g>
<defs>
<filter id="filter0_d_43_703" x="0" y="0" width="70.9651" height="84.3896" filterUnits="userSpaceOnUse" color-interpolation-filters="sRGB">
<feFlood flood-opacity="0" result="BackgroundImageFix"/>
<feColorMatrix in="SourceAlpha" type="matrix" values="0 0 0 0 0 0 0 0 0 0 0 0 0 0 0 0 0 0 127 0" result="hardAlpha"/>
<feOffset dy="4"/>
<feGaussianBlur stdDeviation="4"/>
<feComposite in2="hardAlpha" operator="out"/>
<feColorMatrix type="matrix" values="0 0 0 0 0.764706 0 0 0 0 0.894118 0 0 0 0 0.956863 0 0 0 1 0"/>
<feBlend mode="normal" in2="BackgroundImageFix" result="effect1_dropShadow_43_703"/>
<feBlend mode="normal" in="SourceGraphic" in2="effect1_dropShadow_43_703" result="shape"/>
</filter>
</defs>
</svg>
