<svg width="221" height="247" viewBox="0 0 221 247" fill="none" xmlns="http://www.w3.org/2000/svg">
<path fill-rule="evenodd" clip-rule="evenodd" d="M6.57788 19.1556C4.21582 24.8582 4.21582 32.0873 4.21582 46.5457V246.163H218.105V46.5458C218.105 32.0874 218.105 24.8582 215.743 19.1556C212.593 11.5523 206.552 5.51146 198.949 2.36206C193.247 0 186.017 0 171.559 0H50.7616C36.3032 0 29.074 0 23.3715 2.36206C15.7681 5.51146 9.72728 11.5523 6.57788 19.1556ZM13.0817 29.9223C13.0817 20.1293 24.3451 8.86586 34.1381 8.86586H56.1919C56.71 8.86586 56.969 8.86586 57.1691 8.94691C57.4415 9.05725 57.6478 9.25713 57.7666 9.52595C57.854 9.72342 57.8624 9.99213 57.8793 10.5295C58.0077 14.6094 58.6151 16.8429 59.3628 18.648C60.4876 21.3635 62.645 23.521 65.3605 24.6458C67.3971 25.4893 69.979 25.4893 75.1427 25.4893H148.286C153.45 25.4893 153.815 25.4893 155.852 24.6458C158.567 23.521 160.725 21.3635 161.849 18.648C162.597 16.8429 163.205 14.6094 163.333 10.5295C163.35 9.99213 163.358 9.72342 163.446 9.52595C163.564 9.25713 163.771 9.05725 164.043 8.94691C164.243 8.86586 164.502 8.86586 165.02 8.86586H188.182C197.975 8.86586 208.131 20.1293 208.131 29.9223V243.663H13.0817V29.9223Z" fill="url(#paint0_linear_1750_9163)"/>
<path d="M218.17 41.0855C219.281 41.0855 220.181 41.9861 220.181 43.097V46.0116C220.181 47.1225 219.281 48.0231 218.17 48.0231C217.059 48.0231 216.158 47.1225 216.158 46.0116V43.097C216.158 41.9861 217.059 41.0855 218.17 41.0855Z" fill="#F3F3F3" stroke="#F3F3F3" stroke-width="1.10823"/>
<rect x="1.44588" y="69.2608" width="4.02288" height="15.6815" rx="2.01144" fill="#F3F3F3" stroke="#F3F3F3" stroke-width="1.10823"/>
<path d="M3.45733 100.35C2.34644 100.35 1.44588 101.251 1.44588 102.362V131.508C1.44588 132.619 2.34644 133.52 3.45733 133.52C4.56821 133.52 5.46877 132.619 5.46877 131.508V102.362C5.46877 101.251 4.56821 100.35 3.45733 100.35Z" fill="#F3F3F3" stroke="#F3F3F3" stroke-width="1.10823"/>
<path d="M3.45733 141.155C2.34644 141.155 1.44588 142.056 1.44588 143.167V171.342C1.44588 172.453 2.34644 173.353 3.45733 173.353C4.56821 173.353 5.46877 172.453 5.46877 171.342V143.167C5.46877 142.056 4.56821 141.155 3.45733 141.155Z" fill="#F3F3F3" stroke="#F3F3F3" stroke-width="1.10823"/>
<path d="M218.17 112.981C219.281 112.981 220.181 113.881 220.181 114.992V161.626C220.181 162.737 219.281 163.638 218.17 163.638C217.059 163.638 216.158 162.737 216.158 161.626V114.992C216.158 113.881 217.059 112.981 218.17 112.981Z" fill="#F3F3F3" stroke="#F3F3F3" stroke-width="1.10823"/>
<g filter="url(#filter0_d_1750_9163)">
<rect x="19" y="172.663" width="184" height="51" rx="8" fill="white"/>
</g>
<path d="M33.28 185.247C33.6533 185.247 33.9733 185.327 34.24 185.487C34.512 185.642 34.7227 185.866 34.872 186.159C35.0213 186.447 35.096 186.799 35.096 187.215V187.727H32.44C32.4507 188.122 32.5467 188.428 32.728 188.647C32.9147 188.86 33.176 188.967 33.512 188.967C33.7787 188.967 34.016 188.94 34.224 188.887C34.432 188.828 34.648 188.746 34.872 188.639V189.447C34.6693 189.548 34.4587 189.623 34.24 189.671C34.0213 189.719 33.752 189.743 33.432 189.743C33.0267 189.743 32.6667 189.663 32.352 189.503C32.0427 189.338 31.8 189.09 31.624 188.759C31.448 188.428 31.36 188.018 31.36 187.527C31.36 187.031 31.44 186.615 31.6 186.279C31.76 185.938 31.984 185.682 32.272 185.511C32.5653 185.335 32.9013 185.247 33.28 185.247ZM33.296 185.991C33.056 185.991 32.8613 186.079 32.712 186.255C32.568 186.426 32.4827 186.682 32.456 187.023H34.088C34.088 186.82 34.0587 186.642 34 186.487C33.9413 186.332 33.8533 186.212 33.736 186.127C33.624 186.036 33.4773 185.991 33.296 185.991ZM35.2812 185.327H36.4173L37.1933 187.775C37.2306 187.876 37.2599 187.978 37.2812 188.079C37.3079 188.18 37.3293 188.282 37.3453 188.383C37.3666 188.484 37.3826 188.586 37.3932 188.687H37.4173C37.4386 188.554 37.4653 188.407 37.4973 188.247C37.5346 188.087 37.5773 187.93 37.6253 187.775L38.3853 185.327H39.5052L37.7853 190.231C37.6839 190.519 37.5559 190.764 37.4013 190.967C37.2519 191.17 37.0679 191.322 36.8493 191.423C36.6359 191.53 36.3799 191.583 36.0813 191.583C35.9586 191.583 35.8493 191.575 35.7533 191.559C35.6626 191.548 35.5826 191.535 35.5133 191.519V190.719C35.5666 190.73 35.6333 190.74 35.7133 190.751C35.7933 190.762 35.8759 190.767 35.9613 190.767C36.1159 190.767 36.2466 190.732 36.3533 190.663C36.4653 190.599 36.5586 190.508 36.6333 190.391C36.7079 190.279 36.7639 190.148 36.8013 189.999L36.9133 189.647L35.2812 185.327ZM39.5878 191.279C39.4438 191.279 39.3185 191.268 39.2118 191.247C39.1051 191.231 39.0118 191.212 38.9318 191.191V190.335C39.0118 190.356 39.0971 190.375 39.1878 190.391C39.2731 190.407 39.3665 190.415 39.4678 190.415C39.6118 190.415 39.7345 190.388 39.8358 190.335C39.9425 190.282 40.0225 190.183 40.0758 190.039C40.1345 189.895 40.1638 189.69 40.1638 189.423V183.951H41.2438V189.399C41.2438 189.847 41.1745 190.207 41.0358 190.479C40.8971 190.756 40.7025 190.959 40.4518 191.087C40.2065 191.215 39.9185 191.279 39.5878 191.279ZM43.5306 185.031C43.5306 185.202 43.5226 185.37 43.5066 185.535C43.496 185.695 43.4853 185.815 43.4746 185.895H43.5386C43.624 185.746 43.7253 185.626 43.8426 185.535C43.9653 185.439 44.1013 185.367 44.2506 185.319C44.4053 185.271 44.5653 185.247 44.7306 185.247C45.0346 185.247 45.296 185.303 45.5146 185.415C45.7333 185.527 45.904 185.7 46.0266 185.935C46.1493 186.164 46.2106 186.466 46.2106 186.839V189.663H45.1466V187.039C45.1466 186.708 45.0906 186.463 44.9786 186.303C44.8666 186.143 44.6906 186.063 44.4506 186.063C44.2213 186.063 44.0373 186.122 43.8986 186.239C43.76 186.351 43.664 186.519 43.6106 186.743C43.5573 186.962 43.5306 187.231 43.5306 187.551V189.663H42.4666V183.583H43.5306V185.031ZM48.3976 185.023C48.3976 185.194 48.3923 185.359 48.3816 185.519C48.3763 185.679 48.3683 185.804 48.3576 185.895H48.3976C48.5096 185.714 48.659 185.562 48.8456 185.439C49.0323 185.311 49.2776 185.247 49.5816 185.247C50.0403 185.247 50.4136 185.436 50.7016 185.815C50.995 186.194 51.1416 186.751 51.1416 187.487C51.1416 187.983 51.075 188.399 50.9416 188.735C50.8136 189.071 50.6296 189.324 50.3896 189.495C50.1496 189.66 49.8696 189.743 49.5496 189.743C49.251 189.743 49.011 189.684 48.8296 189.567C48.6536 189.45 48.5096 189.314 48.3976 189.159H48.3256L48.1496 189.663H47.3416V183.583H48.3976V185.023ZM49.2456 186.063C49.043 186.063 48.8803 186.111 48.7576 186.207C48.635 186.303 48.5443 186.45 48.4856 186.647C48.4323 186.844 48.4056 187.095 48.4056 187.399V187.487C48.4056 187.951 48.467 188.306 48.5896 188.551C48.7123 188.796 48.939 188.919 49.2696 188.919C49.5256 188.919 49.7203 188.796 49.8536 188.551C49.9923 188.3 50.0616 187.943 50.0616 187.479C50.0616 187.01 49.9923 186.658 49.8536 186.423C49.7203 186.183 49.5176 186.063 49.2456 186.063ZM54.34 186.527H56.428V189.431C56.1453 189.532 55.844 189.61 55.524 189.663C55.2093 189.716 54.8627 189.743 54.484 189.743C53.9453 189.743 53.484 189.628 53.1 189.399C52.7213 189.17 52.4307 188.836 52.228 188.399C52.0253 187.962 51.924 187.428 51.924 186.799C51.924 186.202 52.0333 185.684 52.252 185.247C52.4707 184.81 52.788 184.471 53.204 184.231C53.62 183.991 54.1293 183.871 54.732 183.871C55.036 183.871 55.3267 183.903 55.604 183.967C55.8867 184.026 56.1427 184.108 56.372 184.215L56.012 185.055C55.8253 184.964 55.6227 184.89 55.404 184.831C55.1907 184.767 54.9613 184.735 54.716 184.735C54.3533 184.735 54.0467 184.82 53.796 184.991C53.5507 185.162 53.3613 185.404 53.228 185.719C53.1 186.028 53.036 186.394 53.036 186.815C53.036 187.22 53.092 187.58 53.204 187.895C53.316 188.204 53.484 188.447 53.708 188.623C53.9373 188.794 54.2333 188.879 54.596 188.879C54.708 188.879 54.812 188.874 54.908 188.863C55.004 188.852 55.092 188.839 55.172 188.823C55.2573 188.807 55.332 188.791 55.396 188.775V187.399H54.34V186.527ZM59.2884 189.743C58.8884 189.743 58.5417 189.666 58.2484 189.511C57.9604 189.351 57.7364 189.108 57.5764 188.783C57.4217 188.452 57.3444 188.031 57.3444 187.519C57.3444 186.986 57.4297 186.554 57.6004 186.223C57.7764 185.887 58.0164 185.642 58.3204 185.487C58.6297 185.327 58.979 185.247 59.3684 185.247C59.6137 185.247 59.843 185.274 60.0564 185.327C60.275 185.38 60.4564 185.444 60.6004 185.519L60.2804 186.295C60.1364 186.236 59.9924 186.186 59.8484 186.143C59.7044 186.1 59.5604 186.079 59.4164 186.079C59.1977 186.079 59.0164 186.132 58.8724 186.239C58.7284 186.346 58.6164 186.506 58.5364 186.719C58.4617 186.927 58.4244 187.191 58.4244 187.511C58.4244 187.82 58.4617 188.079 58.5364 188.287C58.6164 188.495 58.7284 188.652 58.8724 188.759C59.0164 188.86 59.1924 188.911 59.4004 188.911C59.6084 188.911 59.8004 188.882 59.9764 188.823C60.1577 188.764 60.3284 188.684 60.4884 188.583V189.455C60.323 189.556 60.147 189.628 59.9604 189.671C59.7737 189.719 59.5497 189.743 59.2884 189.743ZM62.4681 185.327V189.663H61.4121V185.327H62.4681ZM61.9481 183.655C62.1028 183.655 62.2361 183.695 62.3481 183.775C62.4601 183.85 62.5161 183.986 62.5161 184.183C62.5161 184.375 62.4601 184.514 62.3481 184.599C62.2361 184.679 62.1028 184.719 61.9481 184.719C61.7828 184.719 61.6441 184.679 61.5321 184.599C61.4201 184.514 61.3641 184.375 61.3641 184.183C61.3641 183.986 61.4201 183.85 61.5321 183.775C61.6441 183.695 61.7828 183.655 61.9481 183.655ZM68.5669 186.799C68.5669 187.242 68.5162 187.644 68.4149 188.007C68.3135 188.364 68.1562 188.674 67.9429 188.935C67.7349 189.196 67.4709 189.396 67.1509 189.535C66.8309 189.674 66.4549 189.743 66.0229 189.743C65.5855 189.743 65.2069 189.674 64.8869 189.535C64.5669 189.391 64.3029 189.191 64.0949 188.935C63.8869 188.674 63.7295 188.362 63.6229 187.999C63.5215 187.636 63.4709 187.234 63.4709 186.791C63.4709 186.199 63.5615 185.684 63.7429 185.247C63.9295 184.81 64.2122 184.471 64.5909 184.231C64.9695 183.986 65.4495 183.863 66.0309 183.863C66.6069 183.863 67.0815 183.986 67.4549 184.231C67.8282 184.471 68.1055 184.812 68.2869 185.255C68.4735 185.692 68.5669 186.207 68.5669 186.799ZM64.6069 186.799C64.6069 187.231 64.6549 187.602 64.7509 187.911C64.8469 188.22 64.9989 188.458 65.2069 188.623C65.4202 188.788 65.6922 188.871 66.0229 188.871C66.3535 188.871 66.6229 188.788 66.8309 188.623C67.0389 188.458 67.1909 188.22 67.2869 187.911C67.3829 187.602 67.4309 187.231 67.4309 186.799C67.4309 186.154 67.3189 185.647 67.0949 185.279C66.8762 184.911 66.5189 184.727 66.0229 184.727C65.6922 184.727 65.4202 184.81 65.2069 184.975C64.9989 185.14 64.8469 185.378 64.7509 185.687C64.6549 185.996 64.6069 186.367 64.6069 186.799ZM70.64 185.327V189.663H69.584V185.327H70.64ZM70.12 183.655C70.2747 183.655 70.408 183.695 70.52 183.775C70.632 183.85 70.688 183.986 70.688 184.183C70.688 184.375 70.632 184.514 70.52 184.599C70.408 184.679 70.2747 184.719 70.12 184.719C69.9547 184.719 69.816 184.679 69.704 184.599C69.592 184.514 69.536 184.375 69.536 184.183C69.536 183.986 69.592 183.85 69.704 183.775C69.816 183.695 69.9547 183.655 70.12 183.655ZM71.2988 191.279C71.1547 191.279 71.0294 191.268 70.9227 191.247C70.8161 191.231 70.7227 191.212 70.6427 191.191V190.335C70.7227 190.356 70.8081 190.375 70.8987 190.391C70.9841 190.407 71.0774 190.415 71.1787 190.415C71.3228 190.415 71.4454 190.388 71.5468 190.335C71.6534 190.282 71.7334 190.183 71.7868 190.039C71.8454 189.895 71.8748 189.69 71.8748 189.423V183.951H72.9548V189.399C72.9548 189.847 72.8854 190.207 72.7468 190.479C72.6081 190.756 72.4134 190.959 72.1628 191.087C71.9174 191.215 71.6294 191.279 71.2988 191.279ZM76.2416 189.663H73.8656V189.079L74.5216 188.823V184.799L73.8656 184.535V183.951H76.2416V184.535L75.5936 184.799V188.823L76.2416 189.079V189.663ZM81.5156 187.647C81.5156 188.042 81.433 188.399 81.2676 188.719C81.1076 189.034 80.8623 189.284 80.5316 189.471C80.2063 189.652 79.7983 189.743 79.3076 189.743C78.6036 189.743 78.065 189.551 77.6916 189.167C77.3236 188.778 77.1396 188.266 77.1396 187.631V183.951H78.2116V187.527C78.2116 187.991 78.305 188.332 78.4916 188.551C78.6783 188.764 78.9583 188.871 79.3316 188.871C79.593 188.871 79.8036 188.82 79.9636 188.719C80.129 188.618 80.249 188.466 80.3236 188.263C80.3983 188.055 80.4356 187.807 80.4356 187.519V183.951H81.5156V187.647ZM85.5726 189.663H82.3726V189.047L84.3086 186.095H82.4846V185.327H85.5006V186.007L83.6206 188.887H85.5726V189.663ZM88.4525 189.663H86.0765V189.079L86.7325 188.823V184.799L86.0765 184.535V183.951H88.4525V184.535L87.8045 184.799V188.823L88.4525 189.079V189.663ZM91.7826 189.663H90.7186V186.103C90.7186 185.986 90.7186 185.866 90.7186 185.743C90.7239 185.62 90.7266 185.498 90.7266 185.375C90.7319 185.247 90.7372 185.13 90.7426 185.023C90.6892 185.076 90.6279 185.14 90.5586 185.215C90.4946 185.29 90.4226 185.362 90.3426 185.431L89.7506 185.943L89.2066 185.319L90.8706 183.951H91.7826V189.663ZM98.4147 189.663H97.0627L94.6547 185.183H94.6227C94.628 185.3 94.6334 185.426 94.6387 185.559C94.644 185.687 94.6494 185.82 94.6547 185.959C94.6654 186.092 94.6734 186.228 94.6787 186.367C94.684 186.506 94.6867 186.644 94.6867 186.783V189.663H93.7267V183.951H95.0707L97.4707 188.399H97.5027C97.4974 188.292 97.492 188.178 97.4867 188.055C97.4814 187.927 97.476 187.796 97.4707 187.663C97.4654 187.53 97.46 187.394 97.4547 187.255C97.4494 187.116 97.4467 186.983 97.4467 186.855V183.951H98.4147V189.663ZM100.726 185.327V189.663H99.6699V185.327H100.726ZM100.206 183.655C100.361 183.655 100.494 183.695 100.606 183.775C100.718 183.85 100.774 183.986 100.774 184.183C100.774 184.375 100.718 184.514 100.606 184.599C100.494 184.679 100.361 184.719 100.206 184.719C100.041 184.719 99.9019 184.679 99.7899 184.599C99.6779 184.514 99.6219 184.375 99.6219 184.183C99.6219 183.986 99.6779 183.85 99.7899 183.775C99.9019 183.695 100.041 183.655 100.206 183.655ZM101.385 191.279C101.241 191.279 101.115 191.268 101.009 191.247C100.902 191.231 100.809 191.212 100.729 191.191V190.335C100.809 190.356 100.894 190.375 100.985 190.391C101.07 190.407 101.163 190.415 101.265 190.415C101.409 190.415 101.531 190.388 101.633 190.335C101.739 190.282 101.819 190.183 101.873 190.039C101.931 189.895 101.961 189.69 101.961 189.423V183.951H103.041V189.399C103.041 189.847 102.971 190.207 102.833 190.479C102.694 190.756 102.499 190.959 102.249 191.087C102.003 191.215 101.715 191.279 101.385 191.279ZM107.72 186.391C107.72 186.732 107.693 187.068 107.64 187.399C107.592 187.724 107.509 188.028 107.392 188.311C107.274 188.594 107.114 188.844 106.912 189.063C106.714 189.276 106.461 189.444 106.152 189.567C105.848 189.684 105.482 189.743 105.056 189.743C104.949 189.743 104.826 189.738 104.688 189.727C104.549 189.716 104.432 189.7 104.336 189.679V188.847C104.432 188.874 104.536 188.895 104.648 188.911C104.765 188.927 104.877 188.935 104.984 188.935C105.32 188.935 105.597 188.887 105.816 188.791C106.034 188.69 106.208 188.551 106.336 188.375C106.469 188.194 106.562 187.983 106.616 187.743C106.674 187.498 106.709 187.236 106.72 186.959H106.672C106.602 187.082 106.517 187.194 106.416 187.295C106.314 187.396 106.189 187.476 106.039 187.535C105.89 187.594 105.701 187.623 105.472 187.623C105.168 187.623 104.904 187.554 104.68 187.415C104.461 187.276 104.29 187.076 104.168 186.815C104.045 186.548 103.984 186.226 103.984 185.847C103.984 185.436 104.056 185.084 104.2 184.791C104.349 184.492 104.557 184.266 104.824 184.111C105.09 183.951 105.41 183.871 105.784 183.871C106.056 183.871 106.309 183.924 106.544 184.031C106.778 184.132 106.984 184.287 107.16 184.495C107.336 184.698 107.472 184.959 107.568 185.279C107.669 185.594 107.72 185.964 107.72 186.391ZM105.799 184.695C105.57 184.695 105.381 184.788 105.232 184.975C105.088 185.162 105.016 185.447 105.016 185.831C105.016 186.14 105.077 186.386 105.2 186.567C105.328 186.743 105.517 186.831 105.768 186.831C105.949 186.831 106.104 186.788 106.232 186.703C106.365 186.612 106.466 186.5 106.536 186.367C106.61 186.234 106.648 186.092 106.648 185.943C106.648 185.788 106.629 185.636 106.592 185.487C106.56 185.338 106.509 185.204 106.44 185.087C106.37 184.97 106.28 184.876 106.168 184.807C106.061 184.732 105.938 184.695 105.799 184.695ZM108.456 189.151C108.456 188.927 108.514 188.77 108.632 188.679C108.754 188.583 108.901 188.535 109.072 188.535C109.242 188.535 109.386 188.58 109.504 188.671C109.626 188.762 109.688 188.922 109.688 189.151C109.688 189.37 109.626 189.527 109.504 189.623C109.386 189.719 109.242 189.767 109.072 189.767C108.901 189.767 108.754 189.719 108.632 189.623C108.514 189.527 108.456 189.37 108.456 189.151ZM112.405 185.247C112.778 185.247 113.098 185.327 113.365 185.487C113.637 185.642 113.848 185.866 113.997 186.159C114.146 186.447 114.221 186.799 114.221 187.215V187.727H111.565C111.576 188.122 111.672 188.428 111.853 188.647C112.04 188.86 112.301 188.967 112.637 188.967C112.904 188.967 113.141 188.94 113.349 188.887C113.557 188.828 113.773 188.746 113.997 188.639V189.447C113.794 189.548 113.584 189.623 113.365 189.671C113.146 189.719 112.877 189.743 112.557 189.743C112.152 189.743 111.792 189.663 111.477 189.503C111.168 189.338 110.925 189.09 110.749 188.759C110.573 188.428 110.485 188.018 110.485 187.527C110.485 187.031 110.565 186.615 110.725 186.279C110.885 185.938 111.109 185.682 111.397 185.511C111.69 185.335 112.026 185.247 112.405 185.247ZM112.421 185.991C112.181 185.991 111.986 186.079 111.837 186.255C111.693 186.426 111.608 186.682 111.581 187.023H113.213C113.213 186.82 113.184 186.642 113.125 186.487C113.066 186.332 112.978 186.212 112.861 186.127C112.749 186.036 112.602 185.991 112.421 185.991ZM114.406 185.327H115.542L116.318 187.775C116.356 187.876 116.385 187.978 116.406 188.079C116.433 188.18 116.454 188.282 116.47 188.383C116.492 188.484 116.508 188.586 116.518 188.687H116.542C116.564 188.554 116.59 188.407 116.622 188.247C116.66 188.087 116.702 187.93 116.75 187.775L117.51 185.327H118.63L116.91 190.231C116.809 190.519 116.681 190.764 116.526 190.967C116.377 191.17 116.193 191.322 115.974 191.423C115.761 191.53 115.505 191.583 115.206 191.583C115.084 191.583 114.974 191.575 114.878 191.559C114.788 191.548 114.708 191.535 114.638 191.519V190.719C114.692 190.73 114.758 190.74 114.838 190.751C114.918 190.762 115.001 190.767 115.086 190.767C115.241 190.767 115.372 190.732 115.478 190.663C115.59 190.599 115.684 190.508 115.758 190.391C115.833 190.279 115.889 190.148 115.926 189.999L116.038 189.647L114.406 185.327ZM118.713 191.279C118.569 191.279 118.443 191.268 118.337 191.247C118.23 191.231 118.137 191.212 118.057 191.191V190.335C118.137 190.356 118.222 190.375 118.313 190.391C118.398 190.407 118.491 190.415 118.593 190.415C118.737 190.415 118.859 190.388 118.961 190.335C119.067 190.282 119.147 190.183 119.201 190.039C119.259 189.895 119.289 189.69 119.289 189.423V183.951H120.369V189.399C120.369 189.847 120.299 190.207 120.161 190.479C120.022 190.756 119.827 190.959 119.577 191.087C119.331 191.215 119.043 191.279 118.713 191.279ZM124.448 189.663H121.248V189.047L123.184 186.095H121.36V185.327H124.376V186.007L122.496 188.887H124.448V189.663ZM126.608 189.743C126.144 189.743 125.768 189.556 125.48 189.183C125.192 188.804 125.048 188.244 125.048 187.503C125.048 186.762 125.194 186.202 125.488 185.823C125.781 185.439 126.165 185.247 126.64 185.247C126.837 185.247 127.008 185.276 127.152 185.335C127.301 185.388 127.429 185.463 127.536 185.559C127.642 185.655 127.736 185.762 127.816 185.879H127.848C127.837 185.804 127.824 185.69 127.808 185.535C127.792 185.38 127.784 185.236 127.784 185.103V183.583H128.848V189.663H128.032L127.832 189.095H127.784C127.714 189.212 127.626 189.322 127.52 189.423C127.413 189.519 127.285 189.596 127.136 189.655C126.986 189.714 126.81 189.743 126.608 189.743ZM126.96 188.927C127.285 188.927 127.514 188.82 127.648 188.607C127.781 188.394 127.848 188.071 127.848 187.639V187.511C127.848 187.042 127.784 186.684 127.656 186.439C127.528 186.194 127.293 186.071 126.952 186.071C126.685 186.071 126.48 186.199 126.336 186.455C126.197 186.706 126.128 187.06 126.128 187.519C126.128 187.978 126.2 188.327 126.344 188.567C126.488 188.807 126.693 188.927 126.96 188.927ZM136.694 183.951L135.318 189.663H134.102L133.326 186.383C133.31 186.303 133.289 186.204 133.262 186.087C133.241 185.97 133.217 185.85 133.19 185.727C133.163 185.599 133.142 185.482 133.126 185.375C133.11 185.263 133.097 185.18 133.086 185.127C133.081 185.18 133.067 185.263 133.046 185.375C133.03 185.482 133.009 185.599 132.982 185.727C132.961 185.85 132.937 185.972 132.91 186.095C132.889 186.212 132.867 186.314 132.846 186.399L132.078 189.663H130.862L129.486 183.951H130.558L131.262 187.207C131.278 187.314 131.299 187.431 131.326 187.559C131.353 187.682 131.377 187.81 131.398 187.943C131.425 188.071 131.449 188.199 131.47 188.327C131.491 188.45 131.507 188.559 131.518 188.655C131.534 188.554 131.553 188.442 131.574 188.319C131.595 188.191 131.617 188.063 131.638 187.935C131.665 187.802 131.691 187.674 131.718 187.551C131.745 187.428 131.769 187.322 131.79 187.231L132.574 183.951H133.598L134.39 187.255C134.411 187.346 134.435 187.452 134.462 187.575C134.489 187.692 134.513 187.818 134.534 187.951C134.561 188.079 134.585 188.204 134.606 188.327C134.627 188.45 134.646 188.559 134.662 188.655C134.678 188.522 134.699 188.37 134.726 188.199C134.758 188.028 134.793 187.855 134.83 187.679C134.867 187.503 134.899 187.346 134.926 187.207L135.63 183.951H136.694ZM139.406 189.663H137.03V189.079L137.686 188.823V184.799L137.03 184.535V183.951H139.406V184.535L138.758 184.799V188.823L139.406 189.079V189.663ZM141.32 185.327V189.663H140.264V185.327H141.32ZM140.8 183.655C140.954 183.655 141.088 183.695 141.2 183.775C141.312 183.85 141.368 183.986 141.368 184.183C141.368 184.375 141.312 184.514 141.2 184.599C141.088 184.679 140.954 184.719 140.8 184.719C140.634 184.719 140.496 184.679 140.384 184.599C140.272 184.514 140.216 184.375 140.216 184.183C140.216 183.986 140.272 183.85 140.384 183.775C140.496 183.695 140.634 183.655 140.8 183.655ZM147.418 186.799C147.418 187.242 147.368 187.644 147.266 188.007C147.165 188.364 147.008 188.674 146.794 188.935C146.586 189.196 146.322 189.396 146.002 189.535C145.682 189.674 145.306 189.743 144.874 189.743C144.437 189.743 144.058 189.674 143.738 189.535C143.418 189.391 143.154 189.191 142.946 188.935C142.738 188.674 142.581 188.362 142.474 187.999C142.373 187.636 142.322 187.234 142.322 186.791C142.322 186.199 142.413 185.684 142.594 185.247C142.781 184.81 143.064 184.471 143.442 184.231C143.821 183.986 144.301 183.863 144.882 183.863C145.458 183.863 145.933 183.986 146.306 184.231C146.68 184.471 146.957 184.812 147.138 185.255C147.325 185.692 147.418 186.207 147.418 186.799ZM143.458 186.799C143.458 187.231 143.506 187.602 143.602 187.911C143.698 188.22 143.85 188.458 144.058 188.623C144.272 188.788 144.544 188.871 144.874 188.871C145.205 188.871 145.474 188.788 145.682 188.623C145.89 188.458 146.042 188.22 146.138 187.911C146.234 187.602 146.282 187.231 146.282 186.799C146.282 186.154 146.17 185.647 145.946 185.279C145.728 184.911 145.37 184.727 144.874 184.727C144.544 184.727 144.272 184.81 144.058 184.975C143.85 185.14 143.698 185.378 143.602 185.687C143.506 185.996 143.458 186.367 143.458 186.799ZM149.492 185.327V189.663H148.436V185.327H149.492ZM148.972 183.655C149.126 183.655 149.26 183.695 149.372 183.775C149.484 183.85 149.54 183.986 149.54 184.183C149.54 184.375 149.484 184.514 149.372 184.599C149.26 184.679 149.126 184.719 148.972 184.719C148.806 184.719 148.668 184.679 148.556 184.599C148.444 184.514 148.388 184.375 148.388 184.183C148.388 183.986 148.444 183.85 148.556 183.775C148.668 183.695 148.806 183.655 148.972 183.655ZM152.71 189.663H150.334V189.079L150.99 188.823V184.799L150.334 184.535V183.951H152.71V184.535L152.062 184.799V188.823L152.71 189.079V189.663ZM154.456 187.447L153.12 185.327H154.328L155.16 186.799L155.992 185.327H157.192L155.84 187.447L157.256 189.663H156.056L155.16 188.087L154.256 189.663H153.056L154.456 187.447ZM36.36 201.663H35.008L32.6 197.183H32.568C32.5733 197.3 32.5787 197.426 32.584 197.559C32.5893 197.687 32.5947 197.82 32.6 197.959C32.6107 198.092 32.6187 198.228 32.624 198.367C32.6293 198.506 32.632 198.644 32.632 198.783V201.663H31.672V195.951H33.016L35.416 200.399H35.448C35.4427 200.292 35.4373 200.178 35.432 200.055C35.4267 199.927 35.4213 199.796 35.416 199.663C35.4107 199.53 35.4053 199.394 35.4 199.255C35.3947 199.116 35.392 198.983 35.392 198.855V195.951H36.36V201.663ZM39.7353 201.663H38.6553V196.815H37.1673V195.951H41.2153V196.815H39.7353V201.663ZM46.3516 199.647C46.3516 200.042 46.2689 200.399 46.1036 200.719C45.9436 201.034 45.6982 201.284 45.3676 201.471C45.0422 201.652 44.6342 201.743 44.1436 201.743C43.4396 201.743 42.9009 201.551 42.5276 201.167C42.1596 200.778 41.9756 200.266 41.9756 199.631V195.951H43.0476V199.527C43.0476 199.991 43.1409 200.332 43.3276 200.551C43.5142 200.764 43.7942 200.871 44.1676 200.871C44.4289 200.871 44.6396 200.82 44.7996 200.719C44.9649 200.618 45.0849 200.466 45.1596 200.263C45.2342 200.055 45.2716 199.807 45.2716 199.519V195.951H46.3516V199.647ZM48.6166 197.327V201.663H47.5606V197.327H48.6166ZM48.0966 195.655C48.2512 195.655 48.3846 195.695 48.4966 195.775C48.6086 195.85 48.6646 195.986 48.6646 196.183C48.6646 196.375 48.6086 196.514 48.4966 196.599C48.3846 196.679 48.2512 196.719 48.0966 196.719C47.9312 196.719 47.7926 196.679 47.6806 196.599C47.5686 196.514 47.5126 196.375 47.5126 196.183C47.5126 195.986 47.5686 195.85 47.6806 195.775C47.7926 195.695 47.9312 195.655 48.0966 195.655ZM49.8673 201.663V195.951H50.9393V200.799H53.1393V201.663H49.8673ZM56.2184 196.735C55.9944 196.735 55.7917 196.783 55.6104 196.879C55.429 196.975 55.2744 197.114 55.1464 197.295C55.0237 197.476 54.9304 197.695 54.8664 197.951C54.8024 198.207 54.7704 198.495 54.7704 198.815C54.7704 199.247 54.8237 199.618 54.9304 199.927C55.037 200.231 55.1997 200.466 55.4184 200.631C55.637 200.796 55.9117 200.879 56.2424 200.879C56.4717 200.879 56.6957 200.855 56.9144 200.807C57.133 200.754 57.3544 200.684 57.5784 200.599V201.471C57.3597 201.567 57.133 201.636 56.8984 201.679C56.669 201.722 56.4104 201.743 56.1224 201.743C55.5624 201.743 55.101 201.623 54.7384 201.383C54.3757 201.138 54.1037 200.796 53.9224 200.359C53.7464 199.916 53.6584 199.399 53.6584 198.807C53.6584 198.375 53.7144 197.98 53.8264 197.623C53.9384 197.266 54.1037 196.956 54.3224 196.695C54.541 196.434 54.8104 196.231 55.1304 196.087C55.4504 195.943 55.8157 195.871 56.2264 195.871C56.4984 195.871 56.773 195.906 57.0504 195.975C57.333 196.039 57.581 196.13 57.7944 196.247L57.4344 197.087C57.2477 196.996 57.053 196.916 56.8504 196.847C56.653 196.772 56.4424 196.735 56.2184 196.735ZM58.1113 203.279C57.9672 203.279 57.8419 203.268 57.7352 203.247C57.6286 203.231 57.5352 203.212 57.4552 203.191V202.335C57.5352 202.356 57.6206 202.375 57.7112 202.391C57.7966 202.407 57.8899 202.415 57.9912 202.415C58.1353 202.415 58.2579 202.388 58.3593 202.335C58.4659 202.282 58.5459 202.183 58.5993 202.039C58.6579 201.895 58.6873 201.69 58.6873 201.423V195.951H59.7673V201.399C59.7673 201.847 59.6979 202.207 59.5593 202.479C59.4206 202.756 59.2259 202.959 58.9753 203.087C58.7299 203.215 58.4419 203.279 58.1113 203.279ZM64.4381 198.799C64.4381 199.263 64.4061 199.676 64.3421 200.039C64.2781 200.402 64.1687 200.711 64.0141 200.967C63.8647 201.218 63.6701 201.41 63.4301 201.543C63.1954 201.676 62.9074 201.743 62.5661 201.743C62.1447 201.743 61.7954 201.626 61.5181 201.391C61.2461 201.156 61.0434 200.82 60.9101 200.383C60.7821 199.94 60.7181 199.412 60.7181 198.799C60.7181 198.186 60.7767 197.66 60.8941 197.223C61.0167 196.786 61.2141 196.45 61.4861 196.215C61.7581 195.98 62.1207 195.863 62.5741 195.863C63.0007 195.863 63.3501 195.98 63.6221 196.215C63.8994 196.444 64.1047 196.78 64.2381 197.223C64.3714 197.66 64.4381 198.186 64.4381 198.799ZM61.7821 198.807C61.7821 199.271 61.8061 199.66 61.8541 199.975C61.9021 200.284 61.9847 200.519 62.1021 200.679C62.2194 200.834 62.3767 200.911 62.5741 200.911C62.7714 200.911 62.9261 200.834 63.0381 200.679C63.1554 200.524 63.2407 200.29 63.2941 199.975C63.3474 199.66 63.3741 199.271 63.3741 198.807C63.3741 198.338 63.3474 197.948 63.2941 197.639C63.2407 197.324 63.1554 197.09 63.0381 196.935C62.9261 196.775 62.7714 196.695 62.5741 196.695C62.3767 196.695 62.2194 196.775 62.1021 196.935C61.9847 197.09 61.9021 197.322 61.8541 197.631C61.8061 197.94 61.7821 198.332 61.7821 198.807ZM67.0222 197.247C67.3955 197.247 67.7155 197.327 67.9822 197.487C68.2542 197.642 68.4649 197.866 68.6142 198.159C68.7635 198.447 68.8382 198.799 68.8382 199.215V199.727H66.1822C66.1929 200.122 66.2889 200.428 66.4702 200.647C66.6569 200.86 66.9182 200.967 67.2542 200.967C67.5209 200.967 67.7582 200.94 67.9662 200.887C68.1742 200.828 68.3902 200.746 68.6142 200.639V201.447C68.4115 201.548 68.2009 201.623 67.9822 201.671C67.7635 201.719 67.4942 201.743 67.1742 201.743C66.7689 201.743 66.4089 201.663 66.0942 201.503C65.7849 201.338 65.5422 201.09 65.3662 200.759C65.1902 200.428 65.1022 200.018 65.1022 199.527C65.1022 199.031 65.1822 198.615 65.3422 198.279C65.5022 197.938 65.7262 197.682 66.0142 197.511C66.3075 197.335 66.6435 197.247 67.0222 197.247ZM67.0382 197.991C66.7982 197.991 66.6035 198.079 66.4542 198.255C66.3102 198.426 66.2249 198.682 66.1982 199.023H67.8302C67.8302 198.82 67.8009 198.642 67.7422 198.487C67.6835 198.332 67.5955 198.212 67.4782 198.127C67.3662 198.036 67.2195 197.991 67.0382 197.991ZM74.0919 201.663H72.8599L71.6119 199.383L70.3559 201.663H69.1879L70.9719 198.703L69.2999 195.951H70.4919L71.6439 198.079L72.7799 195.951H73.9639L72.2759 198.743L74.0919 201.663ZM76.4536 195.951C76.9336 195.951 77.3309 195.999 77.6456 196.095C77.9602 196.186 78.1922 196.335 78.3416 196.543C78.4962 196.751 78.5736 197.031 78.5736 197.383C78.5736 197.602 78.5362 197.799 78.4616 197.975C78.3869 198.151 78.2802 198.295 78.1416 198.407C78.0082 198.519 77.8536 198.594 77.6776 198.631V198.671C77.8589 198.708 78.0296 198.778 78.1896 198.879C78.3496 198.975 78.4776 199.116 78.5736 199.303C78.6696 199.484 78.7176 199.724 78.7176 200.023C78.7176 200.37 78.6376 200.666 78.4776 200.911C78.3229 201.156 78.0989 201.343 77.8056 201.471C77.5122 201.599 77.1629 201.663 76.7576 201.663H74.7736V195.951H76.4536ZM76.5496 198.279C76.8962 198.279 77.1362 198.215 77.2696 198.087C77.4029 197.959 77.4696 197.77 77.4696 197.519C77.4696 197.263 77.3896 197.079 77.2296 196.967C77.0749 196.855 76.8269 196.799 76.4856 196.799H75.8456V198.279H76.5496ZM75.8456 199.103V200.807H76.6296C76.9922 200.807 77.2429 200.727 77.3816 200.567C77.5256 200.407 77.5976 200.194 77.5976 199.927C77.5976 199.756 77.5656 199.61 77.5016 199.487C77.4429 199.364 77.3416 199.271 77.1976 199.207C77.0536 199.138 76.8536 199.103 76.5976 199.103H75.8456ZM80.7416 201.663H79.6776V195.583H80.7416V201.663ZM83.9603 201.663H81.5843V201.079L82.2403 200.823V196.799L81.5843 196.535V195.951H83.9603V196.535L83.3123 196.799V200.823L83.9603 201.079V201.663ZM84.4984 203.583C84.381 203.583 84.2584 203.572 84.1304 203.551C84.0024 203.535 83.8957 203.514 83.8104 203.487V202.687C83.8904 202.708 83.9704 202.727 84.0504 202.743C84.125 202.759 84.2077 202.767 84.2984 202.767C84.4424 202.767 84.565 202.719 84.6664 202.623C84.7677 202.532 84.8184 202.356 84.8184 202.095V197.327H85.8664V202.199C85.8664 202.466 85.821 202.703 85.7304 202.911C85.645 203.119 85.501 203.282 85.2984 203.399C85.101 203.522 84.8344 203.583 84.4984 203.583ZM84.7704 196.183C84.7704 195.986 84.8264 195.85 84.9384 195.775C85.0504 195.695 85.1864 195.655 85.3464 195.655C85.501 195.655 85.6344 195.695 85.7464 195.775C85.8637 195.85 85.9224 195.986 85.9224 196.183C85.9224 196.375 85.8637 196.514 85.7464 196.599C85.6344 196.679 85.501 196.719 85.3464 196.719C85.1864 196.719 85.0504 196.679 84.9384 196.599C84.8264 196.514 84.7704 196.375 84.7704 196.183ZM90.7571 199.487C90.7571 199.85 90.7118 200.17 90.6211 200.447C90.5305 200.724 90.3971 200.962 90.2211 201.159C90.0505 201.351 89.8425 201.498 89.5971 201.599C89.3518 201.695 89.0771 201.743 88.7731 201.743C88.4905 201.743 88.2265 201.695 87.9811 201.599C87.7411 201.498 87.5331 201.351 87.3571 201.159C87.1865 200.962 87.0531 200.724 86.9571 200.447C86.8611 200.17 86.8131 199.85 86.8131 199.487C86.8131 199.007 86.8905 198.602 87.0451 198.271C87.2051 197.935 87.4345 197.682 87.7331 197.511C88.0318 197.335 88.3865 197.247 88.7971 197.247C89.1811 197.247 89.5198 197.335 89.8131 197.511C90.1065 197.682 90.3358 197.935 90.5011 198.271C90.6718 198.602 90.7571 199.007 90.7571 199.487ZM87.8931 199.487C87.8931 199.791 87.9251 200.052 87.9891 200.271C88.0531 200.484 88.1491 200.647 88.2771 200.759C88.4105 200.871 88.5811 200.927 88.7891 200.927C88.9971 200.927 89.1651 200.871 89.2931 200.759C89.4265 200.647 89.5225 200.484 89.5811 200.271C89.6451 200.052 89.6771 199.791 89.6771 199.487C89.6771 199.178 89.6451 198.919 89.5811 198.711C89.5171 198.498 89.4185 198.338 89.2851 198.231C89.1571 198.119 88.9891 198.063 88.7811 198.063C88.4665 198.063 88.2398 198.186 88.1011 198.431C87.9625 198.676 87.8931 199.028 87.8931 199.487ZM92.7494 197.327V201.663H91.6934V197.327H92.7494ZM92.2294 195.655C92.384 195.655 92.5174 195.695 92.6294 195.775C92.7414 195.85 92.7974 195.986 92.7974 196.183C92.7974 196.375 92.7414 196.514 92.6294 196.599C92.5174 196.679 92.384 196.719 92.2294 196.719C92.064 196.719 91.9254 196.679 91.8134 196.599C91.7014 196.514 91.6454 196.375 91.6454 196.183C91.6454 195.986 91.7014 195.85 91.8134 195.775C91.9254 195.695 92.064 195.655 92.2294 195.655ZM95.6481 198.471L96.8001 195.951H97.9601L96.1841 199.439V201.663H95.1121V199.479L93.3281 195.951H94.4961L95.6481 198.471ZM105.233 195.951L103.857 201.663H102.641L101.865 198.383C101.849 198.303 101.828 198.204 101.801 198.087C101.78 197.97 101.756 197.85 101.729 197.727C101.702 197.599 101.681 197.482 101.665 197.375C101.649 197.263 101.636 197.18 101.625 197.127C101.62 197.18 101.606 197.263 101.585 197.375C101.569 197.482 101.548 197.599 101.521 197.727C101.5 197.85 101.476 197.972 101.449 198.095C101.428 198.212 101.406 198.314 101.385 198.399L100.617 201.663H99.4009L98.0249 195.951H99.0969L99.8009 199.207C99.8169 199.314 99.8383 199.431 99.8649 199.559C99.8916 199.682 99.9156 199.81 99.9369 199.943C99.9636 200.071 99.9876 200.199 100.009 200.327C100.03 200.45 100.046 200.559 100.057 200.655C100.073 200.554 100.092 200.442 100.113 200.319C100.134 200.191 100.156 200.063 100.177 199.935C100.204 199.802 100.23 199.674 100.257 199.551C100.284 199.428 100.308 199.322 100.329 199.231L101.113 195.951H102.137L102.929 199.255C102.95 199.346 102.974 199.452 103.001 199.575C103.028 199.692 103.052 199.818 103.073 199.951C103.1 200.079 103.124 200.204 103.145 200.327C103.166 200.45 103.185 200.559 103.201 200.655C103.217 200.522 103.238 200.37 103.265 200.199C103.297 200.028 103.332 199.855 103.369 199.679C103.406 199.503 103.438 199.346 103.465 199.207L104.169 195.951H105.233ZM110.665 201.663H109.313L106.905 197.183H106.873C106.878 197.3 106.883 197.426 106.889 197.559C106.894 197.687 106.899 197.82 106.905 197.959C106.915 198.092 106.923 198.228 106.929 198.367C106.934 198.506 106.937 198.644 106.937 198.783V201.663H105.977V195.951H107.321L109.721 200.399H109.753C109.747 200.292 109.742 200.178 109.737 200.055C109.731 199.927 109.726 199.796 109.721 199.663C109.715 199.53 109.71 199.394 109.705 199.255C109.699 199.116 109.697 198.983 109.697 198.855V195.951H110.665V201.663ZM111.6 203.583C111.483 203.583 111.36 203.572 111.232 203.551C111.104 203.535 110.997 203.514 110.912 203.487V202.687C110.992 202.708 111.072 202.727 111.152 202.743C111.227 202.759 111.309 202.767 111.4 202.767C111.544 202.767 111.667 202.719 111.768 202.623C111.869 202.532 111.92 202.356 111.92 202.095V197.327H112.968V202.199C112.968 202.466 112.923 202.703 112.832 202.911C112.747 203.119 112.603 203.282 112.4 203.399C112.203 203.522 111.936 203.583 111.6 203.583ZM111.872 196.183C111.872 195.986 111.928 195.85 112.04 195.775C112.152 195.695 112.288 195.655 112.448 195.655C112.603 195.655 112.736 195.695 112.848 195.775C112.965 195.85 113.024 195.986 113.024 196.183C113.024 196.375 112.965 196.514 112.848 196.599C112.736 196.679 112.603 196.719 112.448 196.719C112.288 196.719 112.152 196.679 112.04 196.599C111.928 196.514 111.872 196.375 111.872 196.183ZM117.747 201.663H113.787V200.967L116.371 196.815H113.859V195.951H117.675V196.647L115.091 200.799H117.747V201.663ZM122.881 201.663H121.649L120.401 199.383L119.145 201.663H117.977L119.761 198.703L118.089 195.951H119.281L120.433 198.079L121.569 195.951H122.753L121.065 198.743L122.881 201.663ZM128.251 201.663H126.899L124.491 197.183H124.459C124.464 197.3 124.469 197.426 124.475 197.559C124.48 197.687 124.485 197.82 124.491 197.959C124.501 198.092 124.509 198.228 124.515 198.367C124.52 198.506 124.523 198.644 124.523 198.783V201.663H123.563V195.951H124.907L127.307 200.399H127.339C127.333 200.292 127.328 200.178 127.323 200.055C127.317 199.927 127.312 199.796 127.307 199.663C127.301 199.53 127.296 199.394 127.291 199.255C127.285 199.116 127.283 198.983 127.283 198.855V195.951H128.251V201.663ZM132.354 201.663H129.154V201.047L131.09 198.095H129.266V197.327H132.282V198.007L130.402 200.887H132.354V201.663ZM137.514 201.663H136.282L135.034 199.383L133.778 201.663H132.61L134.394 198.703L132.722 195.951H133.914L135.066 198.079L136.202 195.951H137.386L135.698 198.743L137.514 201.663ZM141.355 197.255C141.355 197.511 141.305 197.735 141.203 197.927C141.102 198.119 140.963 198.276 140.787 198.399C140.617 198.516 140.419 198.602 140.195 198.655V198.679C140.627 198.732 140.953 198.874 141.171 199.103C141.395 199.332 141.507 199.636 141.507 200.015C141.507 200.346 141.433 200.642 141.283 200.903C141.134 201.164 140.899 201.37 140.579 201.519C140.265 201.668 139.857 201.743 139.355 201.743C139.051 201.743 138.777 201.716 138.531 201.663C138.286 201.615 138.049 201.538 137.819 201.431V200.543C138.054 200.666 138.297 200.759 138.547 200.823C138.798 200.887 139.033 200.919 139.251 200.919C139.667 200.919 139.961 200.836 140.131 200.671C140.302 200.5 140.387 200.266 140.387 199.967C140.387 199.775 140.342 199.618 140.251 199.495C140.166 199.372 140.027 199.282 139.835 199.223C139.649 199.159 139.393 199.127 139.067 199.127H138.651V198.319H139.075C139.374 198.319 139.611 198.282 139.787 198.207C139.969 198.132 140.099 198.028 140.179 197.895C140.259 197.762 140.299 197.607 140.299 197.431C140.299 197.202 140.23 197.023 140.091 196.895C139.958 196.767 139.763 196.703 139.507 196.703C139.337 196.703 139.177 196.724 139.027 196.767C138.878 196.81 138.745 196.866 138.627 196.935C138.51 196.999 138.406 197.068 138.315 197.143L137.835 196.447C137.974 196.34 138.129 196.244 138.299 196.159C138.475 196.068 138.67 195.999 138.883 195.951C139.097 195.898 139.337 195.871 139.603 195.871C140.163 195.871 140.595 195.996 140.899 196.247C141.203 196.492 141.355 196.828 141.355 197.255ZM144.116 195.951C144.59 195.951 144.982 196.012 145.292 196.135C145.601 196.258 145.83 196.444 145.98 196.695C146.129 196.94 146.204 197.252 146.204 197.631C146.204 197.908 146.158 198.146 146.068 198.343C145.977 198.54 145.854 198.706 145.7 198.839C145.55 198.967 145.388 199.071 145.212 199.151L146.748 201.663H145.532L144.292 199.407H143.596V201.663H142.524V195.951H144.116ZM144.068 196.807H143.596V198.567H144.084C144.313 198.567 144.502 198.532 144.652 198.463C144.806 198.394 144.921 198.292 144.996 198.159C145.076 198.026 145.116 197.86 145.116 197.663C145.116 197.455 145.078 197.29 145.004 197.167C144.929 197.039 144.814 196.948 144.66 196.895C144.505 196.836 144.308 196.807 144.068 196.807ZM148.318 201.663L146.758 197.327H147.87L148.646 199.831C148.683 199.932 148.712 200.044 148.734 200.167C148.76 200.284 148.784 200.402 148.806 200.519C148.827 200.631 148.838 200.73 148.838 200.815H148.87C148.88 200.724 148.894 200.623 148.91 200.511C148.931 200.394 148.958 200.276 148.99 200.159C149.022 200.042 149.051 199.932 149.078 199.831L149.862 197.327H150.974L149.414 201.663H148.318ZM153.289 197.247C153.811 197.247 154.211 197.37 154.489 197.615C154.766 197.855 154.905 198.234 154.905 198.751V201.663H154.161L153.953 201.063H153.921C153.803 201.218 153.683 201.348 153.561 201.455C153.438 201.556 153.297 201.628 153.137 201.671C152.977 201.719 152.785 201.743 152.561 201.743C152.321 201.743 152.105 201.695 151.913 201.599C151.721 201.503 151.569 201.356 151.457 201.159C151.345 200.956 151.289 200.703 151.289 200.399C151.289 199.951 151.443 199.615 151.753 199.391C152.062 199.162 152.526 199.036 153.145 199.015L153.841 198.991V198.775C153.841 198.498 153.782 198.3 153.665 198.183C153.547 198.066 153.387 198.007 153.185 198.007C152.993 198.007 152.798 198.039 152.601 198.103C152.409 198.167 152.219 198.242 152.033 198.327L151.705 197.623C151.923 197.511 152.166 197.42 152.433 197.351C152.699 197.282 152.985 197.247 153.289 197.247ZM153.393 199.631C153.014 199.647 152.75 199.724 152.601 199.863C152.451 199.996 152.377 200.178 152.377 200.407C152.377 200.61 152.427 200.756 152.529 200.847C152.635 200.938 152.774 200.983 152.945 200.983C153.195 200.983 153.409 200.9 153.585 200.735C153.761 200.564 153.849 200.314 153.849 199.983V199.615L153.393 199.631ZM157.093 197.327V201.663H156.037V197.327H157.093ZM156.573 195.655C156.728 195.655 156.861 195.695 156.973 195.775C157.085 195.85 157.141 195.986 157.141 196.183C157.141 196.375 157.085 196.514 156.973 196.599C156.861 196.679 156.728 196.719 156.573 196.719C156.408 196.719 156.269 196.679 156.157 196.599C156.045 196.514 155.989 196.375 155.989 196.183C155.989 195.986 156.045 195.85 156.157 195.775C156.269 195.695 156.408 195.655 156.573 195.655ZM34.424 210.311C34.4027 210.215 34.3813 210.119 34.36 210.023C34.3387 209.922 34.3173 209.823 34.296 209.727C34.2747 209.631 34.256 209.54 34.24 209.455C34.224 209.37 34.2107 209.29 34.2 209.215H34.176C34.1707 209.29 34.16 209.372 34.144 209.463C34.128 209.548 34.1093 209.639 34.088 209.735C34.072 209.831 34.0507 209.93 34.024 210.031C34.0027 210.132 33.9813 210.234 33.96 210.335L33.376 212.663H32.152L31.08 208.319H32.128L32.6 210.575C32.6267 210.719 32.6533 210.863 32.68 211.007C32.7067 211.151 32.7307 211.29 32.752 211.423C32.7733 211.551 32.7893 211.666 32.8 211.767H32.832C32.8427 211.698 32.856 211.612 32.872 211.511C32.888 211.404 32.9067 211.298 32.928 211.191C32.9493 211.079 32.968 210.975 32.984 210.879C33.0053 210.783 33.024 210.706 33.04 210.647L33.616 208.319H34.776L35.336 210.647C35.3573 210.738 35.3813 210.852 35.408 210.991C35.4347 211.124 35.4587 211.26 35.48 211.399C35.5067 211.538 35.5227 211.658 35.528 211.759H35.552C35.5627 211.663 35.5787 211.551 35.6 211.423C35.6213 211.295 35.6453 211.159 35.672 211.015C35.704 210.866 35.736 210.719 35.768 210.575L36.272 208.319H37.296L36.2 212.663H34.968L34.424 210.311ZM39.015 208.327V212.663H37.959V208.327H39.015ZM38.495 206.655C38.6497 206.655 38.783 206.695 38.895 206.775C39.007 206.85 39.063 206.986 39.063 207.183C39.063 207.375 39.007 207.514 38.895 207.599C38.783 207.679 38.6497 207.719 38.495 207.719C38.3297 207.719 38.191 207.679 38.079 207.599C37.967 207.514 37.911 207.375 37.911 207.183C37.911 206.986 37.967 206.85 38.079 206.775C38.191 206.695 38.3297 206.655 38.495 206.655ZM41.9058 208.247C42.4284 208.247 42.8284 208.37 43.1058 208.615C43.3831 208.855 43.5218 209.234 43.5218 209.751V212.663H42.7778L42.5698 212.063H42.5378C42.4204 212.218 42.3004 212.348 42.1778 212.455C42.0551 212.556 41.9138 212.628 41.7538 212.671C41.5938 212.719 41.4018 212.743 41.1778 212.743C40.9378 212.743 40.7218 212.695 40.5298 212.599C40.3378 212.503 40.1858 212.356 40.0738 212.159C39.9618 211.956 39.9058 211.703 39.9058 211.399C39.9058 210.951 40.0604 210.615 40.3698 210.391C40.6791 210.162 41.1431 210.036 41.7618 210.015L42.4578 209.991V209.775C42.4578 209.498 42.3991 209.3 42.2818 209.183C42.1644 209.066 42.0044 209.007 41.8018 209.007C41.6098 209.007 41.4151 209.039 41.2178 209.103C41.0258 209.167 40.8364 209.242 40.6497 209.327L40.3218 208.623C40.5404 208.511 40.7831 208.42 41.0498 208.351C41.3164 208.282 41.6018 208.247 41.9058 208.247ZM42.0098 210.631C41.6311 210.647 41.3671 210.724 41.2178 210.863C41.0684 210.996 40.9938 211.178 40.9938 211.407C40.9938 211.61 41.0444 211.756 41.1458 211.847C41.2524 211.938 41.3911 211.983 41.5618 211.983C41.8124 211.983 42.0258 211.9 42.2018 211.735C42.3778 211.564 42.4658 211.314 42.4658 210.983V210.615L42.0098 210.631ZM51.3423 206.951L49.9663 212.663H48.7503L47.9743 209.383C47.9583 209.303 47.937 209.204 47.9103 209.087C47.889 208.97 47.865 208.85 47.8383 208.727C47.8116 208.599 47.7903 208.482 47.7743 208.375C47.7583 208.263 47.745 208.18 47.7343 208.127C47.729 208.18 47.7156 208.263 47.6943 208.375C47.6783 208.482 47.657 208.599 47.6303 208.727C47.609 208.85 47.585 208.972 47.5583 209.095C47.537 209.212 47.5156 209.314 47.4943 209.399L46.7263 212.663H45.5103L44.1343 206.951H45.2063L45.9103 210.207C45.9263 210.314 45.9476 210.431 45.9743 210.559C46.001 210.682 46.025 210.81 46.0463 210.943C46.073 211.071 46.097 211.199 46.1183 211.327C46.1396 211.45 46.1556 211.559 46.1663 211.655C46.1823 211.554 46.201 211.442 46.2223 211.319C46.2436 211.191 46.265 211.063 46.2863 210.935C46.313 210.802 46.3396 210.674 46.3663 210.551C46.393 210.428 46.417 210.322 46.4383 210.231L47.2223 206.951H48.2463L49.0383 210.255C49.0596 210.346 49.0836 210.452 49.1103 210.575C49.137 210.692 49.161 210.818 49.1823 210.951C49.209 211.079 49.233 211.204 49.2543 211.327C49.2756 211.45 49.2943 211.559 49.3103 211.655C49.3263 211.522 49.3476 211.37 49.3743 211.199C49.4063 211.028 49.441 210.855 49.4783 210.679C49.5156 210.503 49.5476 210.346 49.5743 210.207L50.2783 206.951H51.3423ZM53.1421 212.663H52.0861V206.951H55.1661V207.807H53.1421V209.487H55.0301V210.343H53.1421V212.663ZM59.4693 209.799C59.4693 210.263 59.4373 210.676 59.3733 211.039C59.3093 211.402 59.2 211.711 59.0453 211.967C58.896 212.218 58.7013 212.41 58.4613 212.543C58.2266 212.676 57.9386 212.743 57.5973 212.743C57.176 212.743 56.8266 212.626 56.5493 212.391C56.2773 212.156 56.0746 211.82 55.9413 211.383C55.8133 210.94 55.7493 210.412 55.7493 209.799C55.7493 209.186 55.808 208.66 55.9253 208.223C56.048 207.786 56.2453 207.45 56.5173 207.215C56.7893 206.98 57.152 206.863 57.6053 206.863C58.032 206.863 58.3813 206.98 58.6533 207.215C58.9306 207.444 59.136 207.78 59.2693 208.223C59.4026 208.66 59.4693 209.186 59.4693 209.799ZM56.8133 209.807C56.8133 210.271 56.8373 210.66 56.8853 210.975C56.9333 211.284 57.016 211.519 57.1333 211.679C57.2506 211.834 57.408 211.911 57.6053 211.911C57.8026 211.911 57.9573 211.834 58.0693 211.679C58.1866 211.524 58.272 211.29 58.3253 210.975C58.3786 210.66 58.4053 210.271 58.4053 209.807C58.4053 209.338 58.3786 208.948 58.3253 208.639C58.272 208.324 58.1866 208.09 58.0693 207.935C57.9573 207.775 57.8026 207.695 57.6053 207.695C57.408 207.695 57.2506 207.775 57.1333 207.935C57.016 208.09 56.9333 208.322 56.8853 208.631C56.8373 208.94 56.8133 209.332 56.8133 209.807ZM62.4134 212.663H60.0374V212.079L60.6934 211.823V207.799L60.0374 207.535V206.951H62.4134V207.535L61.7654 207.799V211.823L62.4134 212.079V212.663ZM62.9515 214.583C62.8342 214.583 62.7115 214.572 62.5835 214.551C62.4555 214.535 62.3488 214.514 62.2635 214.487V213.687C62.3435 213.708 62.4235 213.727 62.5035 213.743C62.5782 213.759 62.6608 213.767 62.7515 213.767C62.8955 213.767 63.0182 213.719 63.1195 213.623C63.2208 213.532 63.2715 213.356 63.2715 213.095V208.327H64.3195V213.199C64.3195 213.466 64.2742 213.703 64.1835 213.911C64.0982 214.119 63.9542 214.282 63.7515 214.399C63.5542 214.522 63.2875 214.583 62.9515 214.583ZM63.2235 207.183C63.2235 206.986 63.2795 206.85 63.3915 206.775C63.5035 206.695 63.6395 206.655 63.7995 206.655C63.9542 206.655 64.0875 206.695 64.1995 206.775C64.3168 206.85 64.3755 206.986 64.3755 207.183C64.3755 207.375 64.3168 207.514 64.1995 207.599C64.0875 207.679 63.9542 207.719 63.7995 207.719C63.6395 207.719 63.5035 207.679 63.3915 207.599C63.2795 207.514 63.2235 207.375 63.2235 207.183ZM69.2103 210.487C69.2103 210.85 69.1649 211.17 69.0743 211.447C68.9836 211.724 68.8503 211.962 68.6743 212.159C68.5036 212.351 68.2956 212.498 68.0503 212.599C67.8049 212.695 67.5303 212.743 67.2263 212.743C66.9436 212.743 66.6796 212.695 66.4343 212.599C66.1943 212.498 65.9863 212.351 65.8103 212.159C65.6396 211.962 65.5063 211.724 65.4103 211.447C65.3143 211.17 65.2663 210.85 65.2663 210.487C65.2663 210.007 65.3436 209.602 65.4983 209.271C65.6583 208.935 65.8876 208.682 66.1863 208.511C66.4849 208.335 66.8396 208.247 67.2503 208.247C67.6343 208.247 67.9729 208.335 68.2663 208.511C68.5596 208.682 68.7889 208.935 68.9543 209.271C69.1249 209.602 69.2103 210.007 69.2103 210.487ZM66.3463 210.487C66.3463 210.791 66.3783 211.052 66.4423 211.271C66.5063 211.484 66.6023 211.647 66.7303 211.759C66.8636 211.871 67.0343 211.927 67.2423 211.927C67.4503 211.927 67.6183 211.871 67.7463 211.759C67.8796 211.647 67.9756 211.484 68.0343 211.271C68.0983 211.052 68.1303 210.791 68.1303 210.487C68.1303 210.178 68.0983 209.919 68.0343 209.711C67.9703 209.498 67.8716 209.338 67.7383 209.231C67.6103 209.119 67.4423 209.063 67.2343 209.063C66.9196 209.063 66.6929 209.186 66.5543 209.431C66.4156 209.676 66.3463 210.028 66.3463 210.487ZM70.8861 210.447L69.5501 208.327H70.7581L71.5901 209.799L72.4221 208.327H73.6221L72.2701 210.447L73.6861 212.663H72.4861L71.5901 211.087L70.6861 212.663H69.4861L70.8861 210.447ZM79.1178 212.663H77.7658L75.3578 208.183H75.3258C75.3311 208.3 75.3365 208.426 75.3418 208.559C75.3471 208.687 75.3525 208.82 75.3578 208.959C75.3685 209.092 75.3765 209.228 75.3818 209.367C75.3871 209.506 75.3898 209.644 75.3898 209.783V212.663H74.4298V206.951H75.7738L78.1738 211.399H78.2058C78.2005 211.292 78.1951 211.178 78.1898 211.055C78.1845 210.927 78.1791 210.796 78.1738 210.663C78.1685 210.53 78.1631 210.394 78.1578 210.255C78.1525 210.116 78.1498 209.983 78.1498 209.855V206.951H79.1178V212.663ZM83.2211 212.663H80.0211V212.047L81.9571 209.095H80.1331V208.327H83.1491V209.007L81.2691 211.887H83.2211V212.663ZM86.1009 212.663H83.7249V212.079L84.3809 211.823V207.799L83.7249 207.535V206.951H86.1009V207.535L85.4529 207.799V211.823L86.1009 212.079V212.663ZM87.847 210.447L86.511 208.327H87.719L88.551 209.799L89.383 208.327H90.583L89.231 210.447L90.647 212.663H89.447L88.551 211.087L87.647 212.663H86.447L87.847 210.447ZM93.7108 212.663L92.3188 207.983H92.2868C92.2921 208.09 92.3001 208.242 92.3108 208.439C92.3214 208.631 92.3294 208.842 92.3348 209.071C92.3454 209.295 92.3508 209.506 92.3508 209.703V212.663H91.3908V206.951H92.8628L94.2228 211.439H94.2468L95.6308 206.951H97.1108V212.663H96.1028V209.655C96.1028 209.474 96.1054 209.276 96.1108 209.063C96.1161 208.844 96.1241 208.639 96.1348 208.447C96.1454 208.25 96.1534 208.098 96.1588 207.991H96.1268L94.6948 212.663H93.7108ZM98.0452 214.583C97.9279 214.583 97.8053 214.572 97.6772 214.551C97.5492 214.535 97.4426 214.514 97.3572 214.487V213.687C97.4372 213.708 97.5172 213.727 97.5972 213.743C97.6719 213.759 97.7546 213.767 97.8453 213.767C97.9893 213.767 98.1119 213.719 98.2133 213.623C98.3146 213.532 98.3653 213.356 98.3653 213.095V208.327H99.4133V213.199C99.4133 213.466 99.3679 213.703 99.2773 213.911C99.1919 214.119 99.0479 214.282 98.8453 214.399C98.6479 214.522 98.3813 214.583 98.0452 214.583ZM98.3173 207.183C98.3173 206.986 98.3733 206.85 98.4853 206.775C98.5973 206.695 98.7333 206.655 98.8933 206.655C99.0479 206.655 99.1813 206.695 99.2933 206.775C99.4106 206.85 99.4693 206.986 99.4693 207.183C99.4693 207.375 99.4106 207.514 99.2933 207.599C99.1813 207.679 99.0479 207.719 98.8933 207.719C98.7333 207.719 98.5973 207.679 98.4853 207.599C98.3733 207.514 98.3173 207.375 98.3173 207.183ZM101.944 208.247C102.211 208.247 102.443 208.3 102.64 208.407C102.837 208.514 103.003 208.674 103.136 208.887H103.168L103.264 208.327H104.16V212.695C104.16 213.106 104.085 213.45 103.936 213.727C103.787 214.01 103.563 214.223 103.264 214.367C102.971 214.511 102.597 214.583 102.144 214.583C101.84 214.583 101.563 214.562 101.312 214.519C101.067 214.482 100.832 214.415 100.608 214.319V213.487C100.763 213.556 100.92 213.615 101.08 213.663C101.245 213.716 101.416 213.756 101.592 213.783C101.768 213.81 101.955 213.823 102.152 213.823C102.461 213.823 102.696 213.73 102.856 213.543C103.021 213.356 103.104 213.09 103.104 212.743V212.631C103.104 212.551 103.107 212.458 103.112 212.351C103.123 212.244 103.131 212.159 103.136 212.095H103.104C102.976 212.319 102.816 212.484 102.624 212.591C102.432 212.692 102.2 212.743 101.928 212.743C101.443 212.743 101.059 212.546 100.776 212.151C100.499 211.756 100.36 211.207 100.36 210.503C100.36 210.028 100.424 209.623 100.552 209.287C100.68 208.951 100.861 208.695 101.096 208.519C101.336 208.338 101.619 208.247 101.944 208.247ZM102.264 209.071C102.083 209.071 101.931 209.127 101.808 209.239C101.691 209.346 101.6 209.506 101.536 209.719C101.472 209.932 101.44 210.199 101.44 210.519C101.44 210.988 101.509 211.343 101.648 211.583C101.787 211.823 101.995 211.943 102.272 211.943C102.432 211.943 102.568 211.922 102.68 211.879C102.792 211.831 102.883 211.756 102.952 211.655C103.021 211.548 103.075 211.415 103.112 211.255C103.149 211.09 103.168 210.892 103.168 210.663V210.511C103.168 210.164 103.136 209.887 103.072 209.679C103.013 209.466 102.917 209.311 102.784 209.215C102.651 209.119 102.477 209.071 102.264 209.071ZM108.934 211.439H108.262V212.663H107.214V211.439H104.87V210.687L107.246 206.935H108.262V210.615H108.934V211.439ZM107.214 209.335C107.214 209.223 107.214 209.108 107.214 208.991C107.22 208.868 107.225 208.748 107.23 208.631C107.236 208.514 107.241 208.407 107.246 208.311C107.252 208.215 107.254 208.14 107.254 208.087H107.222C107.18 208.188 107.132 208.292 107.078 208.399C107.025 208.506 106.972 208.61 106.918 208.711L105.822 210.615H107.214V209.335ZM112.055 212.663L110.663 207.983H110.631C110.636 208.09 110.644 208.242 110.655 208.439C110.665 208.631 110.673 208.842 110.679 209.071C110.689 209.295 110.695 209.506 110.695 209.703V212.663H109.735V206.951H111.207L112.567 211.439H112.591L113.975 206.951H115.455V212.663H114.447V209.655C114.447 209.474 114.449 209.276 114.455 209.063C114.46 208.844 114.468 208.639 114.479 208.447C114.489 208.25 114.497 208.098 114.503 207.991H114.471L113.039 212.663H112.055ZM116.389 214.583C116.272 214.583 116.149 214.572 116.021 214.551C115.893 214.535 115.786 214.514 115.701 214.487V213.687C115.781 213.708 115.861 213.727 115.941 213.743C116.016 213.759 116.098 213.767 116.189 213.767C116.333 213.767 116.456 213.719 116.557 213.623C116.658 213.532 116.709 213.356 116.709 213.095V208.327H117.757V213.199C117.757 213.466 117.712 213.703 117.621 213.911C117.536 214.119 117.392 214.282 117.189 214.399C116.992 214.522 116.725 214.583 116.389 214.583ZM116.661 207.183C116.661 206.986 116.717 206.85 116.829 206.775C116.941 206.695 117.077 206.655 117.237 206.655C117.392 206.655 117.525 206.695 117.637 206.775C117.754 206.85 117.813 206.986 117.813 207.183C117.813 207.375 117.754 207.514 117.637 207.599C117.525 207.679 117.392 207.719 117.237 207.719C117.077 207.719 116.941 207.679 116.829 207.599C116.717 207.514 116.661 207.375 116.661 207.183ZM120.288 208.247C120.554 208.247 120.786 208.3 120.984 208.407C121.181 208.514 121.346 208.674 121.48 208.887H121.512L121.608 208.327H122.504V212.695C122.504 213.106 122.429 213.45 122.28 213.727C122.13 214.01 121.906 214.223 121.608 214.367C121.314 214.511 120.941 214.583 120.488 214.583C120.184 214.583 119.906 214.562 119.656 214.519C119.41 214.482 119.176 214.415 118.952 214.319V213.487C119.106 213.556 119.264 213.615 119.424 213.663C119.589 213.716 119.76 213.756 119.936 213.783C120.112 213.81 120.298 213.823 120.496 213.823C120.805 213.823 121.04 213.73 121.2 213.543C121.365 213.356 121.448 213.09 121.448 212.743V212.631C121.448 212.551 121.45 212.458 121.456 212.351C121.466 212.244 121.474 212.159 121.48 212.095H121.448C121.32 212.319 121.16 212.484 120.968 212.591C120.776 212.692 120.544 212.743 120.272 212.743C119.786 212.743 119.402 212.546 119.12 212.151C118.842 211.756 118.704 211.207 118.704 210.503C118.704 210.028 118.768 209.623 118.896 209.287C119.024 208.951 119.205 208.695 119.44 208.519C119.68 208.338 119.962 208.247 120.288 208.247ZM120.608 209.071C120.426 209.071 120.274 209.127 120.152 209.239C120.034 209.346 119.944 209.506 119.88 209.719C119.816 209.932 119.784 210.199 119.784 210.519C119.784 210.988 119.853 211.343 119.992 211.583C120.13 211.823 120.338 211.943 120.616 211.943C120.776 211.943 120.912 211.922 121.024 211.879C121.136 211.831 121.226 211.756 121.296 211.655C121.365 211.548 121.418 211.415 121.456 211.255C121.493 211.09 121.512 210.892 121.512 210.663V210.511C121.512 210.164 121.48 209.887 121.416 209.679C121.357 209.466 121.261 209.311 121.128 209.215C120.994 209.119 120.821 209.071 120.608 209.071ZM127.102 212.663H123.382V211.919L124.734 210.447C125.006 210.154 125.225 209.903 125.39 209.695C125.555 209.482 125.675 209.284 125.75 209.103C125.83 208.922 125.87 208.724 125.87 208.511C125.87 208.25 125.803 208.055 125.67 207.927C125.542 207.794 125.371 207.727 125.158 207.727C124.945 207.727 124.742 207.778 124.55 207.879C124.363 207.975 124.166 208.114 123.958 208.295L123.374 207.631C123.529 207.492 123.691 207.367 123.862 207.255C124.033 207.138 124.23 207.044 124.454 206.975C124.683 206.906 124.947 206.871 125.246 206.871C125.593 206.871 125.891 206.938 126.142 207.071C126.398 207.199 126.595 207.378 126.734 207.607C126.873 207.836 126.942 208.103 126.942 208.407C126.942 208.642 126.907 208.858 126.838 209.055C126.774 209.252 126.678 209.447 126.55 209.639C126.422 209.831 126.27 210.028 126.094 210.231C125.918 210.434 125.721 210.655 125.502 210.895L124.726 211.743V211.791H127.102V212.663ZM128.078 212.663V206.951H129.15V211.799H131.35V212.663H128.078ZM134.429 207.735C134.205 207.735 134.003 207.783 133.821 207.879C133.64 207.975 133.485 208.114 133.357 208.295C133.235 208.476 133.141 208.695 133.077 208.951C133.013 209.207 132.981 209.495 132.981 209.815C132.981 210.247 133.035 210.618 133.141 210.927C133.248 211.231 133.411 211.466 133.629 211.631C133.848 211.796 134.123 211.879 134.453 211.879C134.683 211.879 134.907 211.855 135.125 211.807C135.344 211.754 135.565 211.684 135.789 211.599V212.471C135.571 212.567 135.344 212.636 135.109 212.679C134.88 212.722 134.621 212.743 134.333 212.743C133.773 212.743 133.312 212.623 132.949 212.383C132.587 212.138 132.315 211.796 132.133 211.359C131.957 210.916 131.869 210.399 131.869 209.807C131.869 209.375 131.925 208.98 132.037 208.623C132.149 208.266 132.315 207.956 132.533 207.695C132.752 207.434 133.021 207.231 133.341 207.087C133.661 206.943 134.027 206.871 134.437 206.871C134.709 206.871 134.984 206.906 135.261 206.975C135.544 207.039 135.792 207.13 136.005 207.247L135.645 208.087C135.459 207.996 135.264 207.916 135.061 207.847C134.864 207.772 134.653 207.735 134.429 207.735ZM136.322 214.279C136.178 214.279 136.053 214.268 135.946 214.247C135.84 214.231 135.746 214.212 135.666 214.191V213.335C135.746 213.356 135.832 213.375 135.922 213.391C136.008 213.407 136.101 213.415 136.202 213.415C136.346 213.415 136.469 213.388 136.57 213.335C136.677 213.282 136.757 213.183 136.81 213.039C136.869 212.895 136.898 212.69 136.898 212.423V206.951H137.978V212.399C137.978 212.847 137.909 213.207 137.77 213.479C137.632 213.756 137.437 213.959 137.186 214.087C136.941 214.215 136.653 214.279 136.322 214.279ZM140.265 212.663H139.201V206.583H140.265V212.663ZM143.124 208.247C143.497 208.247 143.817 208.327 144.084 208.487C144.356 208.642 144.566 208.866 144.716 209.159C144.865 209.447 144.94 209.799 144.94 210.215V210.727H142.284C142.294 211.122 142.39 211.428 142.572 211.647C142.758 211.86 143.02 211.967 143.356 211.967C143.622 211.967 143.86 211.94 144.068 211.887C144.276 211.828 144.492 211.746 144.716 211.639V212.447C144.513 212.548 144.302 212.623 144.084 212.671C143.865 212.719 143.596 212.743 143.276 212.743C142.87 212.743 142.51 212.663 142.196 212.503C141.886 212.338 141.644 212.09 141.468 211.759C141.292 211.428 141.204 211.018 141.204 210.527C141.204 210.031 141.284 209.615 141.444 209.279C141.604 208.938 141.828 208.682 142.116 208.511C142.409 208.335 142.745 208.247 143.124 208.247ZM143.14 208.991C142.9 208.991 142.705 209.079 142.556 209.255C142.412 209.426 142.326 209.682 142.3 210.023H143.932C143.932 209.82 143.902 209.642 143.844 209.487C143.785 209.332 143.697 209.212 143.58 209.127C143.468 209.036 143.321 208.991 143.14 208.991ZM150.305 212.663H149.225V210.127H147.017V212.663H145.945V206.951H147.017V209.255H149.225V206.951H150.305V212.663ZM154.961 212.663L154.521 211.151H152.569L152.129 212.663H150.977L152.897 206.927H154.185L156.113 212.663H154.961ZM153.809 208.799C153.787 208.714 153.758 208.612 153.721 208.495C153.689 208.372 153.657 208.247 153.625 208.119C153.598 207.991 153.571 207.871 153.545 207.759C153.523 207.887 153.497 208.015 153.465 208.143C153.433 208.266 153.401 208.383 153.369 208.495C153.342 208.607 153.315 208.708 153.289 208.799L152.841 210.271H154.265L153.809 208.799ZM157.749 208.327V212.663H156.693V208.327H157.749ZM157.229 206.655C157.384 206.655 157.517 206.695 157.629 206.775C157.741 206.85 157.797 206.986 157.797 207.183C157.797 207.375 157.741 207.514 157.629 207.599C157.517 207.679 157.384 207.719 157.229 207.719C157.064 207.719 156.925 207.679 156.813 207.599C156.701 207.514 156.645 207.375 156.645 207.183C156.645 206.986 156.701 206.85 156.813 206.775C156.925 206.695 157.064 206.655 157.229 206.655Z" fill="#858585"/>
<path d="M90.2126 45.8833C90.204 47.234 90.4854 48.4764 91.5546 49.0868V44.0998H92.7321V47.0608H93.2776V43.9959H94.4724V51.944H93.2776V48.0565H92.7321V51.589H91.5546V49.2513L90.9053 50.1258C90.2516 49.7708 89.8403 49.1907 89.5893 48.4634C89.3079 49.2859 88.8533 49.9613 88.1693 50.3682L87.3988 49.4591C88.6196 48.7318 88.9918 47.3119 88.9918 45.9699V44.6539H90.2126V45.8833ZM102.49 50.0738V51.0868H95.2257V50.0738H98.23V48.9656H96.0395V46.2296H100.446V45.4851H96.0309V44.4894H101.676V47.1993H97.2863V47.9613H101.858V48.9656H99.4594V50.0738H102.49ZM110.143 47.8141V48.7924H107.208V50.0998H105.944V48.7924H102.879V47.8141H110.143ZM109.347 50.8098V51.8141H103.719V49.4158H104.975V50.8098H109.347ZM106.507 44.1344C108.239 44.1431 109.399 44.7837 109.399 45.7967C109.399 46.8184 108.239 47.4504 106.507 47.4504C104.775 47.4504 103.607 46.8184 103.607 45.7967C103.607 44.7837 104.775 44.1431 106.507 44.1344ZM106.507 45.1128C105.555 45.1128 104.949 45.3379 104.957 45.7967C104.949 46.2383 105.555 46.4634 106.507 46.4634C107.468 46.4634 108.057 46.2383 108.057 45.7967C108.057 45.3379 107.468 45.1128 106.507 45.1128ZM115.927 44.7924V46.853H116.594V44.0998H117.771V51.589H116.594V47.8487H115.927V49.9872H112.732V44.7924H115.927ZM113.901 45.7621V49.0175H114.767V45.7621H113.901ZM119.442 43.9959V51.944H118.247V43.9959H119.442ZM123.373 45.6842C123.364 47.1474 123.927 48.6106 125.338 49.1907L124.602 50.195C123.711 49.7968 123.113 49.0565 122.758 48.1258C122.408 49.1517 121.784 49.9699 120.819 50.4028L120.074 49.3639C121.529 48.7665 122.1 47.2426 122.109 45.6842V44.5846H123.373V45.6842ZM126.871 43.9959V51.9613H125.615V43.9959H126.871ZM131.009 46.0738C131.009 47.3379 131.564 48.7145 132.949 49.2773L132.282 50.2556C131.36 49.8747 130.75 49.1301 130.395 48.221C130.048 49.2167 129.421 50.0392 128.49 50.4548L127.78 49.4764C129.157 48.8704 129.737 47.4158 129.737 46.0738V45.7621H128.109V44.7491H132.603V45.7621H131.009V46.0738ZM134.533 43.9959V51.944H133.278V43.9959H134.533Z" fill="#C6C6C6"/>
<defs>
<filter id="filter0_d_1750_9163" x="11" y="165.663" width="200" height="67" filterUnits="userSpaceOnUse" color-interpolation-filters="sRGB">
<feFlood flood-opacity="0" result="BackgroundImageFix"/>
<feColorMatrix in="SourceAlpha" type="matrix" values="0 0 0 0 0 0 0 0 0 0 0 0 0 0 0 0 0 0 127 0" result="hardAlpha"/>
<feMorphology radius="4" operator="erode" in="SourceAlpha" result="effect1_dropShadow_1750_9163"/>
<feOffset dy="1"/>
<feGaussianBlur stdDeviation="6"/>
<feComposite in2="hardAlpha" operator="out"/>
<feColorMatrix type="matrix" values="0 0 0 0 0 0 0 0 0 0 0 0 0 0 0 0 0 0 0.2 0"/>
<feBlend mode="normal" in2="BackgroundImageFix" result="effect1_dropShadow_1750_9163"/>
<feBlend mode="normal" in="SourceGraphic" in2="effect1_dropShadow_1750_9163" result="shape"/>
</filter>
<linearGradient id="paint0_linear_1750_9163" x1="111.16" y1="0" x2="111.16" y2="246.163" gradientUnits="userSpaceOnUse">
<stop stop-color="#F3F3F3"/>
<stop offset="0.74" stop-color="#F5F5F5"/>
<stop offset="1" stop-color="white"/>
</linearGradient>
</defs>
</svg>
