<svg width="28" height="28" viewBox="0 0 28 28" fill="none" xmlns="http://www.w3.org/2000/svg">
<path d="M26.9286 0H17.9286C17.8107 0 17.7143 0.0964286 17.7143 0.214286V2.21429C17.7143 2.33214 17.8107 2.42857 17.9286 2.42857H23.6571L16.5393 9.54643C14.7536 8.17143 12.575 7.42857 10.2857 7.42857C7.53929 7.42857 4.95357 8.5 3.01429 10.4429C1.075 12.3857 0 14.9679 0 17.7143C0 20.4607 1.07143 23.0464 3.01429 24.9857C4.95357 26.9286 7.53929 28 10.2857 28C13.0321 28 15.6179 26.9286 17.5571 24.9857C19.5 23.0464 20.5714 20.4607 20.5714 17.7143C20.5714 15.425 19.8286 13.2536 18.4571 11.4679L25.5714 4.35357V10.0714C25.5714 10.1893 25.6679 10.2857 25.7857 10.2857H27.7857C27.9036 10.2857 28 10.1893 28 10.0714V1.07143C28 0.482143 27.5179 0 26.9286 0ZM10.2857 25.2857C6.11071 25.2857 2.71429 21.8893 2.71429 17.7143C2.71429 13.5393 6.11071 10.1429 10.2857 10.1429C14.4607 10.1429 17.8571 13.5393 17.8571 17.7143C17.8571 21.8893 14.4607 25.2857 10.2857 25.2857Z" fill="#2BA8E2"/>
</svg>
