<svg width="69" height="73" viewBox="0 0 69 73" fill="none" xmlns="http://www.w3.org/2000/svg">
<g filter="url(#filter0_d_43_543)">
<path fill-rule="evenodd" clip-rule="evenodd" d="M52.2392 47.7994H36.6338C38.2767 55.5186 41.1574 60.6371 44.4365 60.6371C47.7157 60.6371 50.5964 55.5186 52.2392 47.7994ZM31.4723 47.7994C29.8294 55.5186 26.9487 60.6371 23.6696 60.6371C20.3904 60.6371 17.5097 55.5186 15.8669 47.7994H31.4723Z" fill="#F6D8D8"/>
</g>
<g filter="url(#filter1_d_43_543)">
<mask id="path-2-inside-1_43_543" fill="white">
<path fill-rule="evenodd" clip-rule="evenodd" d="M32.574 40.4337C31.478 52.0923 27.9065 60.6372 23.6696 60.6372C18.5606 60.6372 14.4189 48.2121 14.4189 32.885C14.4189 32.1269 14.429 31.3759 14.4489 30.6332C10.5401 27.9555 8 23.6193 8 18.7257C8 10.5929 15.0155 4 23.6696 4C27.6526 4 31.2885 5.39653 34.0531 7.69697C36.8177 5.39653 40.4536 4 44.4366 4C53.0907 4 60.1062 10.5929 60.1062 18.7257C60.1062 23.6193 57.5661 27.9555 53.6573 30.6332C53.6772 31.3759 53.6873 32.1269 53.6873 32.885C53.6873 48.2121 49.5456 60.6372 44.4366 60.6372C40.223 60.6372 36.6674 52.1859 35.5504 40.6254C34.5367 40.6248 33.5424 40.5592 32.574 40.4337Z"/>
</mask>
<path d="M32.574 40.4337L32.8955 37.9544L30.3274 37.6214L30.085 40.1997L32.574 40.4337ZM14.4489 30.6332L16.948 30.7001L16.9844 29.3398L15.8618 28.5707L14.4489 30.6332ZM34.0531 7.69697L32.454 9.61868L34.0531 10.9493L35.6522 9.61868L34.0531 7.69697ZM53.6573 30.6332L52.2444 28.5707L51.1218 29.3398L51.1582 30.7001L53.6573 30.6332ZM35.5504 40.6254L38.0389 40.3849L37.8207 38.1266L35.5518 38.1254L35.5504 40.6254ZM30.085 40.1997C29.5521 45.8686 28.4266 50.6393 27.0063 53.9122C26.2931 55.5554 25.5597 56.6945 24.8943 57.3849C24.234 58.0698 23.8243 58.1372 23.6696 58.1372V63.1372C25.6334 63.1372 27.2589 62.1364 28.4942 60.8549C29.7243 59.5787 30.7466 57.8529 31.593 55.9027C33.2917 51.9884 34.5 46.6574 35.0631 40.6677L30.085 40.1997ZM23.6696 58.1372C23.4867 58.1372 22.9145 58.0282 22.0323 56.9088C21.1724 55.8176 20.2886 54.0837 19.5001 51.7182C17.9318 47.0133 16.9189 40.3546 16.9189 32.885H11.9189C11.9189 40.7424 12.9768 47.9598 14.7566 53.2993C15.6422 55.956 16.7518 58.2862 18.1053 60.0037C19.4366 61.693 21.298 63.1372 23.6696 63.1372V58.1372ZM16.9189 32.885C16.9189 32.1491 16.9287 31.4205 16.948 30.7001L11.9498 30.5663C11.9293 31.3313 11.9189 32.1046 11.9189 32.885H16.9189ZM15.8618 28.5707C12.5689 26.3149 10.5 22.7194 10.5 18.7257H5.5C5.5 24.5192 8.51133 29.596 13.036 32.6956L15.8618 28.5707ZM10.5 18.7257C10.5 12.1177 16.2476 6.5 23.6696 6.5V1.5C13.7834 1.5 5.5 9.06814 5.5 18.7257H10.5ZM23.6696 6.5C27.0631 6.5 30.1345 7.68855 32.454 9.61868L35.6522 5.77525C32.4425 3.10451 28.2421 1.5 23.6696 1.5V6.5ZM35.6522 9.61868C37.9717 7.68855 41.0431 6.5 44.4366 6.5V1.5C39.8641 1.5 35.6637 3.10451 32.454 5.77525L35.6522 9.61868ZM44.4366 6.5C51.8586 6.5 57.6062 12.1177 57.6062 18.7257H62.6062C62.6062 9.06814 54.3228 1.5 44.4366 1.5V6.5ZM57.6062 18.7257C57.6062 22.7194 55.5373 26.3149 52.2444 28.5707L55.0702 32.6956C59.5949 29.596 62.6062 24.5192 62.6062 18.7257H57.6062ZM51.1582 30.7001C51.1775 31.4205 51.1873 32.1491 51.1873 32.885H56.1873C56.1873 32.1046 56.1769 31.3313 56.1564 30.5663L51.1582 30.7001ZM51.1873 32.885C51.1873 40.3546 50.1744 47.0133 48.6061 51.7182C47.8176 54.0837 46.9338 55.8176 46.0739 56.9088C45.1917 58.0282 44.6195 58.1372 44.4366 58.1372V63.1372C46.8082 63.1372 48.6696 61.693 50.0009 60.0037C51.3544 58.2862 52.464 55.956 53.3495 53.2993C55.1294 47.9598 56.1873 40.7424 56.1873 32.885H51.1873ZM44.4366 58.1372C44.2826 58.1372 43.8768 58.0707 43.2225 57.3958C42.5624 56.715 41.8334 55.5903 41.123 53.9651C39.708 50.7281 38.5819 46.0054 38.0389 40.3849L33.062 40.8658C33.6359 46.8058 34.8461 52.0891 36.5416 55.9678C37.3864 57.9005 38.4062 59.6112 39.6327 60.8763C40.865 62.1473 42.4838 63.1372 44.4366 63.1372V58.1372ZM35.5518 38.1254C34.6449 38.1249 33.7576 38.0662 32.8955 37.9544L32.2526 42.9129C33.3272 43.0523 34.4284 43.1248 35.5491 43.1254L35.5518 38.1254Z" fill="black" mask="url(#path-2-inside-1_43_543)"/>
</g>
<defs>
<filter id="filter0_d_43_543" x="7.86688" y="43.7994" width="52.3723" height="28.8378" filterUnits="userSpaceOnUse" color-interpolation-filters="sRGB">
<feFlood flood-opacity="0" result="BackgroundImageFix"/>
<feColorMatrix in="SourceAlpha" type="matrix" values="0 0 0 0 0 0 0 0 0 0 0 0 0 0 0 0 0 0 127 0" result="hardAlpha"/>
<feOffset dy="4"/>
<feGaussianBlur stdDeviation="4"/>
<feComposite in2="hardAlpha" operator="out"/>
<feColorMatrix type="matrix" values="0 0 0 0 0.964706 0 0 0 0 0.847059 0 0 0 0 0.847059 0 0 0 1 0"/>
<feBlend mode="normal" in2="BackgroundImageFix" result="effect1_dropShadow_43_543"/>
<feBlend mode="normal" in="SourceGraphic" in2="effect1_dropShadow_43_543" result="shape"/>
</filter>
<filter id="filter1_d_43_543" x="0" y="0" width="68.1062" height="72.6372" filterUnits="userSpaceOnUse" color-interpolation-filters="sRGB">
<feFlood flood-opacity="0" result="BackgroundImageFix"/>
<feColorMatrix in="SourceAlpha" type="matrix" values="0 0 0 0 0 0 0 0 0 0 0 0 0 0 0 0 0 0 127 0" result="hardAlpha"/>
<feOffset dy="4"/>
<feGaussianBlur stdDeviation="4"/>
<feComposite in2="hardAlpha" operator="out"/>
<feColorMatrix type="matrix" values="0 0 0 0 0.964706 0 0 0 0 0.847059 0 0 0 0 0.847059 0 0 0 1 0"/>
<feBlend mode="normal" in2="BackgroundImageFix" result="effect1_dropShadow_43_543"/>
<feBlend mode="normal" in="SourceGraphic" in2="effect1_dropShadow_43_543" result="shape"/>
</filter>
</defs>
</svg>
