<svg width="28" height="28" viewBox="0 0 28 28" fill="none" xmlns="http://www.w3.org/2000/svg">
<path d="M15.3634 15.6911C17.062 13.9562 18 11.6453 18 9.19196C18 6.73538 17.0651 4.42768 15.3634 2.69286C13.6648 0.958036 11.4021 0 9 0C6.59789 0 4.33521 0.954799 2.63662 2.69286C0.938029 4.43091 0 6.73538 0 9.19196C0 11.2569 0.662324 13.2183 1.88239 14.8204C2.11373 15.1247 2.36408 15.4127 2.63345 15.6911C2.90282 15.9662 3.18803 16.2219 3.48275 16.4581C4.73768 17.455 6.21761 18.0894 7.79577 18.303V21.75H4.1831C4.04366 21.75 3.92958 21.8665 3.92958 22.0089V23.9509C3.92958 24.0933 4.04366 24.2098 4.1831 24.2098H7.79577V28.7411C7.79577 28.8835 7.90986 29 8.0493 29H9.9507C10.0901 29 10.2042 28.8835 10.2042 28.7411V24.2098H13.8169C13.9563 24.2098 14.0704 24.0933 14.0704 23.9509V22.0089C14.0704 21.8665 13.9563 21.75 13.8169 21.75H10.2042V18.303C12.1532 18.0376 13.95 17.1346 15.3634 15.6911ZM9 15.9241C7.23803 15.9241 5.58697 15.225 4.33838 13.953C3.09296 12.681 2.40845 10.9915 2.40845 9.19196C2.40845 7.39241 3.09296 5.70614 4.33838 4.43091C5.5838 3.15569 7.23803 2.45982 9 2.45982C10.762 2.45982 12.413 3.15893 13.6616 4.43091C14.907 5.7029 15.5915 7.39241 15.5915 9.19196C15.5915 10.9915 14.907 12.6778 13.6616 13.953C12.413 15.225 10.762 15.9241 9 15.9241Z" fill="#F27AA8"/>
</svg>
