<svg width="51" height="51" viewBox="0 0 51 51" fill="none" xmlns="http://www.w3.org/2000/svg">
<path d="M0 8C0 3.58172 3.58172 0 8 0H43C47.4183 0 51 3.58172 51 8V43C51 47.4183 47.4183 51 43 51H8C3.58172 51 0 47.4183 0 43V8Z" fill="#141414"/>
<path d="M26 17.2001V15" stroke="#F8F8F8" stroke-width="2.6" stroke-linecap="round" stroke-linejoin="round"/>
<path d="M26 37.0009V34.8008" stroke="#F8F8F8" stroke-width="2.6" stroke-linecap="round" stroke-linejoin="round"/>
<path d="M26 18C24.4178 18 22.871 18.4692 21.5554 19.3482C20.2398 20.2273 19.2145 21.4767 18.609 22.9385C18.0035 24.4003 17.845 26.0089 18.1537 27.5607C18.4624 29.1126 19.2243 30.538 20.3431 31.6569C21.462 32.7757 22.8874 33.5376 24.4393 33.8463C25.9911 34.155 27.5997 33.9965 29.0615 33.391C30.5233 32.7855 31.7727 31.7602 32.6518 30.4446C33.5308 29.129 34 27.5823 34 26C34 23.8783 33.1571 21.8434 31.6569 20.3431C30.1566 18.8429 28.1217 18 26 18Z" stroke="#F8F8F8" stroke-width="2.6" stroke-linecap="round" stroke-linejoin="round"/>
<path d="M34.8008 26H37.0009" stroke="#F8F8F8" stroke-width="2.6" stroke-linecap="round" stroke-linejoin="round"/>
<path d="M15 26H17.2001" stroke="#F8F8F8" stroke-width="2.6" stroke-linecap="round" stroke-linejoin="round"/>
<path d="M26 30C28.2091 30 30 28.2091 30 26C30 23.7909 28.2091 22 26 22C23.7909 22 22 23.7909 22 26C22 28.2091 23.7909 30 26 30Z" fill="#F8F8F8"/>
</svg>
